<?xml version="1.0" encoding="UTF-8"?>
<svg width="100px" height="100px" viewBox="0 0 100 100" version="1.1" xmlns="http://www.w3.org/2000/svg" xmlns:xlink="http://www.w3.org/1999/xlink">
    <!-- Generator: Sketch 62 (91390) - https://sketch.com -->
    <title>comprehensive</title>
    <desc>Created with Sketch.</desc>
    <g id="comprehensive" stroke="none" stroke-width="1" fill="none" fill-rule="evenodd">
        <path d="M41.0022852,22.9952539 C41.973125,22.9952539 42.7600977,23.7822266 42.7600977,24.7530664 L42.7600977,24.7530664 L42.7600977,33.0179492 C43.119043,32.9743555 43.482207,32.9525586 43.8487109,32.9525586 C46.3131641,32.9525586 48.6913086,33.9863281 50.3733594,35.7887891 C52.0789648,37.6165625 52.9228906,40.0024414 52.7495703,42.5066211 C52.4410742,46.9667187 48.8410742,50.524707 44.3758789,50.7829297 C43.8302539,50.8145703 43.2907812,50.7978711 42.7602734,50.7337109 L42.7602734,50.7337109 L42.7602734,57.2399023 L53.3055664,57.2399023 C53.8975977,57.2399023 54.4499023,57.5380273 54.7749219,58.0330273 C55.0997656,58.5280273 55.1537305,59.1532812 54.9183594,59.6966211 C54.6244531,60.3747852 54.4753906,61.0972461 54.4753906,61.8441406 C54.4753906,63.359375 55.0858789,64.7636914 56.1945312,65.7983398 C57.3019531,66.8319336 58.7502148,67.3422266 60.2710742,67.2378125 C62.9705469,67.0511328 65.124043,64.8716211 65.2803125,62.168457 C65.3302344,61.3071289 65.1843359,60.4755078 64.8470117,59.6967969 C64.6114648,59.1536328 64.6654297,58.5282031 64.9904492,58.0332031 C65.315293,57.5382031 65.8675977,57.2400781 66.4598047,57.2400781 L66.4598047,57.2400781 L73.2876758,57.2400781 C76.3123437,57.2471094 78.7625586,59.703125 78.7625586,62.7149609 L78.7625586,62.7149609 L78.7625586,89.5249414 C78.7625586,92.5438086 76.3063672,95 73.2875,95 L73.2875,95 L10.4750586,95 C7.45619141,95 5,92.5438086 5,89.5249414 L5,89.5249414 L5,62.7149609 C5,61.2812891 5.55388672,59.974707 6.45898437,58.9973633 C5.5540625,58.0203711 5,56.7137891 5,55.280293 L5,55.280293 L5,28.4703125 C5,25.4512695 7.45636719,22.9952539 10.4752344,22.9952539 L10.4752344,22.9952539 Z M15.0219922,60.7553516 L10.4706641,60.7553516 C9.39224609,60.7579883 8.515625,61.6360156 8.515625,62.7149609 L8.515625,62.7149609 L8.515625,89.5249414 C8.515625,90.6054687 9.39453125,91.484375 10.4750586,91.484375 L10.4750586,91.484375 L39.2444727,91.484375 L39.2444727,82.6967187 C39.2444727,82.1046875 39.5425977,81.5523828 40.0375977,81.2273633 C40.5327734,80.9023437 41.1582031,80.8487305 41.7011914,81.0839258 C42.3793555,81.3776562 43.1018164,81.5267187 43.8487109,81.5267187 C45.3642969,81.5267187 46.7684375,80.9162305 47.8030859,79.8075781 C48.8365039,78.7001562 49.3476758,77.2524219 49.2423828,75.7312109 C49.0555273,73.0317383 46.8760156,70.8782422 44.1728516,70.7219727 C43.3108203,70.6724023 42.4799023,70.8179492 41.7011914,71.1552734 C41.1580273,71.3909961 40.5325977,71.3370312 40.0375977,71.0118359 C39.5425977,70.6869922 39.2444727,70.1346875 39.2444727,69.5424805 L39.2444727,69.5424805 L39.2444727,60.7553516 L32.7375781,60.7553516 C32.7811719,61.1142969 32.8029687,61.4774609 32.8029687,61.8439648 C32.8029687,64.308418 31.7691992,66.6865625 29.9667383,68.3686133 C28.2957617,69.9279687 26.1580859,70.7671484 23.8901562,70.7671484 C23.6774609,70.7671484 23.4637109,70.7599414 23.2489062,70.745 C18.7889844,70.4363281 15.2309961,66.8365039 14.9725977,62.3713086 C14.9411328,61.825332 14.9576562,61.2860352 15.0219922,60.7553516 L15.0219922,60.7553516 Z M51.0255078,60.7553516 L42.7600977,60.7553516 L42.7600977,67.261543 C43.2907812,67.197207 43.8300781,67.1805078 44.3760547,67.2123242 C48.8410742,67.4707227 52.4410742,71.0287109 52.7497461,75.4886328 C52.9228906,77.9929883 52.0789648,80.3786914 50.3733594,82.2064648 C48.6913086,84.0089258 46.3131641,85.0426953 43.8487109,85.0426953 C43.482207,85.0426953 43.119043,85.0208984 42.7600977,84.9773047 L42.7600977,84.9773047 L42.7600977,91.484375 L73.2875,91.484375 C74.3678516,91.484375 75.2469336,90.6054687 75.2469336,89.5249414 L75.2469336,89.5249414 L75.2472852,89.5249414 L75.2472852,62.7147852 C75.2472852,61.6368945 74.3704883,60.7578125 73.2927734,60.7553516 L73.2927734,60.7553516 L68.7412695,60.7553516 C68.8054297,61.2858594 68.8221289,61.8249805 68.7904883,62.3711328 C68.5320898,66.8363281 64.9741016,70.4363281 60.5141797,70.7448242 C58.0094727,70.9186719 55.6241211,70.0742187 53.7963477,68.3684375 C51.9938867,66.6863867 50.9601172,64.308418 50.9601172,61.8439648 C50.9601172,61.4774609 50.9819141,61.1142969 51.0255078,60.7553516 L51.0255078,60.7553516 Z M39.2446484,26.5112305 L10.4752344,26.5112305 C9.39470703,26.5112305 8.51580078,27.3903125 8.51580078,28.4706641 L8.51580078,28.4706641 L8.51580078,55.2809961 C8.51580078,56.3597656 9.39224609,57.237793 10.4706641,57.2402539 L10.4706641,57.2402539 L17.303457,57.2402539 C17.8954883,57.2402539 18.447793,57.5383789 18.7728125,58.0333789 C19.097832,58.5283789 19.1517969,59.1536328 18.91625,59.6969727 C18.57875,60.4755078 18.4330273,61.3073047 18.4827734,62.1686328 C18.639043,64.8717969 20.7925391,67.0511328 23.4920117,67.2379883 C25.0119922,67.3424023 26.460957,66.8319336 27.5683789,65.7985156 C28.6770312,64.7638672 29.2875195,63.3595508 29.2875195,61.8441406 C29.2875195,61.0974219 29.138457,60.3747852 28.8445508,59.6967969 C28.6090039,59.1536328 28.662793,58.5282031 28.9878125,58.0332031 C29.312832,57.5382031 29.8651367,57.2400781 30.4573437,57.2400781 L30.4573437,57.2400781 L39.2446484,57.2400781 L39.2446484,48.4527734 C39.2446484,47.8605664 39.5427734,47.3082617 40.0377734,46.9832422 C40.5329492,46.6583984 41.1582031,46.6044336 41.701543,46.8399805 C42.4799023,47.1773047 43.3113477,47.3228516 44.1730273,47.273457 C46.8761914,47.1170117 49.0555273,44.9635156 49.2423828,42.2642187 C49.3478516,40.742832 48.8365039,39.2950977 47.8030859,38.1876758 C46.7686133,37.0790234 45.3642969,36.4685352 43.8488867,36.4685352 C43.1019922,36.4685352 42.3795312,36.6174219 41.701543,36.9113281 C41.1582031,37.146875 40.5329492,37.0930859 40.0377734,36.7680664 C39.5427734,36.4430469 39.2446484,35.8907422 39.2446484,35.2985352 L39.2446484,35.2985352 L39.2446484,26.5112305 Z M89.5249414,5 C92.5438086,5 95,7.45619141 95,10.4750586 L95,10.4750586 L95,16.3858789 C95,17.3567187 94.2130273,18.1436914 93.2421875,18.1436914 C92.2713477,18.1436914 91.484375,17.3567187 91.484375,16.3858789 L91.484375,16.3858789 L91.484375,10.4750586 C91.484375,9.39470703 90.6054688,8.515625 89.5247656,8.515625 L89.5247656,8.515625 L60.7553516,8.515625 L60.7553516,15.0226953 C61.1142969,14.9792773 61.4772852,14.9573047 61.8437891,14.9573047 C64.3082422,14.9573047 66.6863867,15.9910742 68.3684375,17.7935352 C70.0742188,19.6213086 70.9181445,22.0070117 70.7448242,24.5113672 C70.4361523,28.9712891 66.8361523,32.5292773 62.370957,32.7875 C61.8251563,32.8189648 61.2858594,32.8026172 60.7555273,32.7382812 L60.7555273,32.7382812 L60.7555273,39.2446484 L69.542832,39.2446484 C70.1348633,39.2446484 70.687168,39.5427734 71.0121875,40.0377734 C71.337207,40.5327734 71.3911719,41.1580273 71.155625,41.7013672 C70.8618945,42.3795312 70.712832,43.1019922 70.712832,43.8488867 C70.712832,45.3642969 71.3233203,46.7686133 72.4319727,47.8032617 C73.5393945,48.8366797 74.987832,49.3467969 76.5085156,49.2425586 C79.2078125,49.0557031 81.3613086,46.8761914 81.5175781,44.1730273 C81.5675,43.3116992 81.4216016,42.4800781 81.0842773,41.7013672 C80.8487305,41.1582031 80.9026953,40.5327734 81.2277148,40.0377734 C81.5525586,39.5427734 82.1048633,39.2446484 82.6970703,39.2446484 L82.6970703,39.2446484 L89.5249414,39.2446484 C90.6054687,39.2446484 91.484375,38.3657422 91.484375,37.2852148 L91.484375,37.2852148 L91.484375,32.2787891 C91.484375,31.3079492 92.2713477,30.5209766 93.2421875,30.5209766 C94.2130273,30.5209766 95,31.3079492 95,32.2787891 L95,32.2787891 L95,37.2852148 C95,40.304082 92.5438086,42.7602734 89.5249414,42.7602734 L89.5249414,42.7602734 L84.9781836,42.7602734 C85.0423437,43.2907812 85.059043,43.8302539 85.0274023,44.3760547 C84.7691797,48.8410742 81.2111914,52.4410742 76.7512695,52.7497461 C76.5366406,52.7645117 76.3227148,52.7718946 76.1100195,52.7718946 C73.8419141,52.7718946 71.7045898,51.9328906 70.0334375,50.3733594 C68.2309766,48.6913086 67.197207,46.3131641 67.197207,43.8487109 C67.197207,43.482207 67.2190039,43.119043 67.2625977,42.7600977 L67.2625977,42.7600977 L58.9977148,42.7600977 C58.026875,42.7600977 57.2399023,41.973125 57.2399023,41.0022852 L57.2399023,41.0022852 L57.2399023,30.4573437 C57.2399023,29.8653125 57.5380273,29.3130078 58.0330273,28.9879883 C58.5280273,28.6631445 59.153457,28.6093555 59.6966211,28.844375 C60.4755078,29.1816992 61.3066016,29.3277734 62.1681055,29.2776758 C64.8714453,29.1212305 67.0507812,26.9677344 67.2376367,24.2684375 C67.3429297,22.7472266 66.8317578,21.2993164 65.7983398,20.1918945 C64.7636914,19.0832422 63.359375,18.4727539 61.8439648,18.4727539 C61.0970703,18.4727539 60.3746094,18.6218164 59.6966211,18.9155469 C59.1532812,19.150918 58.5278516,19.0969531 58.0330273,18.7721094 C57.5380273,18.4472656 57.2399023,17.8949609 57.2399023,17.3027539 L57.2399023,17.3027539 L57.2399023,6.7578125 C57.2399023,5.78697266 58.026875,5 58.9977148,5 L58.9977148,5 Z M92.7598437,22.6756836 C93.48125,22.4694922 94.289668,22.7579492 94.7029297,23.3884766 C95.1613672,24.0764844 95.071543,25.0216602 94.4849609,25.6068359 C93.9723828,26.1183594 93.1769727,26.2646094 92.5165625,25.9654297 C91.8510547,25.6637891 91.4279492,24.9499414 91.4908789,24.220625 C91.5531055,23.4983398 92.0618164,22.8750195 92.7598437,22.6756836 Z" id="Combined-Shape" fill="#181818" fill-rule="nonzero"></path>
    </g>
</svg>