<svg id="Capa_1" enable-background="new 0 0 512 512" height="512" viewBox="0 0 512 512" width="512" xmlns="http://www.w3.org/2000/svg"><g><g><g><path d="m388.481 297.188h-38.843c-3.369 0-6.511 1.696-8.359 4.512-1.849 2.816-2.156 6.374-.816 9.464 1.919 4.43 2.749 9.161 2.465 14.061-.889 15.378-13.14 27.777-28.497 28.839-8.652.594-16.891-2.309-23.191-8.189-6.307-5.886-9.78-13.875-9.78-22.495 0-4.249.848-8.359 2.52-12.217 1.339-3.091 1.032-6.648-.816-9.464-1.849-2.816-4.991-4.512-8.359-4.512h-59.991v-37.013c3.018.365 6.087.46 9.191.28 25.402-1.469 45.882-21.71 47.637-47.083.986-14.246-3.815-27.819-13.518-38.217-9.569-10.254-23.098-16.135-37.118-16.135-2.085 0-4.151.124-6.193.372v-47.018c0-5.523-4.477-10-10-10h-173.665c-17.174 0-31.147 13.972-31.147 31.147v152.519c0 8.155 3.151 15.588 8.299 21.146-5.149 5.56-8.3 12.993-8.3 21.149v152.519c0 17.174 13.973 31.147 31.147 31.147h357.333c17.174 0 31.147-13.973 31.147-31.147v-152.519c0-17.134-13.939-31.106-31.146-31.146zm-368.48-163.666c0-6.146 5-11.147 11.147-11.147h163.666v49.99c0 3.369 1.696 6.511 4.512 8.36 2.817 1.849 6.374 2.155 9.465.815 3.857-1.672 7.967-2.519 12.216-2.519 8.621 0 16.61 3.473 22.495 9.78 5.879 6.3 8.788 14.536 8.188 23.191-1.063 15.356-13.461 27.607-28.839 28.497-4.902.281-9.632-.547-14.06-2.466-3.091-1.34-6.648-1.033-9.465.815-2.816 1.849-4.512 4.991-4.512 8.36v49.99h-49.99c-3.369 0-6.511 1.696-8.36 4.512s-2.155 6.374-.815 9.464c1.672 3.857 2.52 7.968 2.52 12.216 0 8.621-3.473 16.61-9.78 22.496-6.3 5.879-14.543 8.783-23.19 8.189-15.357-1.063-27.608-13.461-28.497-28.839-.283-4.9.546-9.632 2.466-14.061 1.34-3.091 1.033-6.648-.816-9.464s-4.991-4.512-8.359-4.512h-38.808c-.013 0-.025 0-.038 0-.008 0-.017 0-.025 0-6.135-.014-11.121-5.009-11.121-11.146zm174.812 358.478h-163.666c-6.147 0-11.147-5-11.147-11.147v-152.519c0-6.138 4.987-11.133 11.122-11.147h.026 25.866c-.366 3.018-.46 6.086-.281 9.192 1.47 25.402 21.711 45.881 47.083 47.637 1.222.085 2.438.126 3.648.126 12.902 0 25.063-4.774 34.569-13.645 10.254-9.569 16.135-23.098 16.135-37.118 0-2.085-.124-4.151-.372-6.193h37.017v49.989c0 3.369 1.696 6.511 4.512 8.359 2.816 1.85 6.374 2.157 9.464.816 4.43-1.919 9.157-2.747 14.061-2.465 15.378.889 27.777 13.14 28.84 28.497.599 8.654-2.309 16.89-8.188 23.19-5.886 6.307-13.874 9.78-22.496 9.78-4.249 0-8.359-.848-12.217-2.519-3.089-1.338-6.647-1.033-9.464.816-2.816 1.849-4.512 4.991-4.512 8.359zm204.814-11.147c0 6.147-5.001 11.147-11.147 11.147h-173.667v-37.018c2.042.248 4.108.372 6.193.372 14.02 0 27.549-5.881 37.118-16.135 9.703-10.398 14.504-23.97 13.519-38.217-1.756-25.372-22.236-45.613-47.637-47.083-3.106-.181-6.174-.086-9.192.28v-37.013h47.02c-.248 2.042-.372 4.108-.372 6.193 0 14.02 5.881 27.548 16.135 37.117 10.398 9.704 23.968 14.508 38.217 13.519 25.372-1.755 45.613-22.235 47.083-47.637.18-3.107.085-6.174-.28-9.192h25.893c6.131.014 11.119 5.015 11.119 11.147v152.52z"/><path d="m480.853 0h-173.666c-5.523 0-10 4.477-10 10v59.989c0 3.369 1.696 6.511 4.512 8.359 2.815 1.848 6.373 2.155 9.464.816 3.857-1.671 7.967-2.519 12.216-2.519 8.621 0 16.61 3.473 22.496 9.78 5.879 6.3 8.787 14.537 8.188 23.191-1.063 15.356-13.461 27.607-28.84 28.497-4.901.285-9.629-.546-14.06-2.465-3.09-1.337-6.648-1.031-9.464.817-2.816 1.849-4.512 4.991-4.512 8.359v59.989c0 5.523 4.477 10 10 10h47.018c-.248 2.042-.372 4.108-.372 6.193 0 14.02 5.881 27.549 16.135 37.118 9.507 8.872 21.666 13.646 34.569 13.645 1.21 0 2.427-.042 3.648-.126 25.372-1.756 45.613-22.236 47.082-47.637.18-3.105.085-6.174-.28-9.192h25.866c17.174 0 31.147-13.973 31.147-31.147v-28.481c0-5.523-4.477-10-10-10s-10 4.477-10 10v28.481c0 6.147-5 11.147-11.147 11.147h-38.843c-3.369 0-6.511 1.696-8.359 4.512-1.849 2.816-2.156 6.374-.816 9.464 1.919 4.43 2.749 9.161 2.465 14.061-.889 15.378-13.14 27.777-28.496 28.84-8.651.593-16.891-2.309-23.191-8.188-6.307-5.886-9.78-13.875-9.78-22.496 0-4.249.848-8.359 2.519-12.217 1.34-3.091 1.033-6.648-.816-9.464s-4.991-4.512-8.359-4.512h-49.99v-37.014c3.017.366 6.085.459 9.19.28 25.402-1.469 45.882-21.71 47.638-47.082.986-14.247-3.815-27.819-13.519-38.217-9.569-10.254-23.098-16.135-37.118-16.135-2.085 0-4.15.125-6.192.372v-37.018h163.666c6.148 0 11.148 5.001 11.148 11.147v33.626c0 5.523 4.477 10 10 10s10-4.477 10-10v-33.626c0-17.174-13.973-31.147-31.147-31.147z"/><path d="m510.31 104.61c-2.351-3.587-6.95-5.228-11.054-4.055-3.971 1.134-6.865 4.68-7.219 8.789-.358 4.149 2.049 8.21 5.835 9.926 3.757 1.702 8.282.87 11.198-2.04 3.337-3.329 3.848-8.706 1.24-12.62z"/></g></g></g></svg>