<?xml version="1.0" encoding="UTF-8"?>
<svg xmlns="http://www.w3.org/2000/svg" id="Layer_1" data-name="Layer 1" viewBox="0 0 64 64" width="512" height="512"><path d="M17,62.148a5.033,5.033,0,0,0,7.827,0l16.51-20.259A3.03,3.03,0,0,0,38.994,37c-2.747,0-3.985.021-3.983.021a1.007,1.007,0,0,1-1.01-1V22.466A15.026,15.026,0,1,0,29.573,27.3a1,1,0,1,0-1.148-1.638,12.975,12.975,0,1,1,3.718-3.968,1.122,1.122,0,0,0-.143.516V36.021a3.013,3.013,0,0,0,3.027,3c.007,0,1.233-.02,3.967-.02a1.015,1.015,0,0,1,.784,1.629L23.268,60.889a3.071,3.071,0,0,1-4.717,0L2.213,40.653A1.011,1.011,0,0,1,3,39.022H6.988a3.035,3.035,0,0,0,3.011-3V28.409a1,1,0,0,0-2,0v7.612a1.007,1.007,0,0,1-1.01,1H3A3.043,3.043,0,0,0,.656,41.911Z"/><path d="M21,3.992A11,11,0,1,0,32,15,11.024,11.024,0,0,0,21,3.992ZM21,24a9,9,0,1,1,9-9A9.018,9.018,0,0,1,21,24Z"/><path d="M21,12h2a1,1,0,0,0,0-2H22a1,1,0,0,0-2,0v.172A3,3,0,0,0,21,16a1,1,0,1,1,0,2H19a1,1,0,1,0,0,2h1a1,1,0,0,0,2,0v-.184A2.994,2.994,0,0,0,21,14a1,1,0,1,1,0-2Z"/><path d="M58.013,14a1,1,0,1,0,0,2h4L51.789,27.648a1.079,1.079,0,0,1-1.568,0L40.024,16h3.982a1,1,0,0,0,1-1v-12a1,1,0,0,1,1-1H56.012a1,1,0,0,1,1,1v8a1,1,0,0,0,2,0v-8a3,3,0,0,0-3-3H46.007a3.006,3.006,0,0,0-3,3V14H40.024a2.022,2.022,0,0,0-1.523,3.32L48.718,28.97a3.091,3.091,0,0,0,4.574,0L63.517,17.315a1.97,1.97,0,0,0,.318-2.138A2,2,0,0,0,62,14Z"/></svg>
