<?xml version="1.0" encoding="UTF-8"?>
<svg width="100px" height="100px" viewBox="0 0 100 100" version="1.1" xmlns="http://www.w3.org/2000/svg" xmlns:xlink="http://www.w3.org/1999/xlink">
    <!-- Generator: Sketch 62 (91390) - https://sketch.com -->
    <title>efficient</title>
    <desc>Created with Sketch.</desc>
    <g id="efficient" stroke="none" stroke-width="1" fill="none" fill-rule="evenodd">
        <path d="M47.230996,9.11872425 C55.8231092,15.3971529 58.4620589,27.0168736 53.4837776,36.3652806 L53.3150115,36.6760425 L53.2003238,36.8786803 L53.2003147,55.6119833 C53.2034801,56.0670666 53.5256959,56.4459574 53.950546,56.5379131 L54.0503117,56.5539442 L54.1531302,56.5592127 L56.0685574,56.5404237 L58.8063826,56.5305328 L59.7143671,56.5300049 C61.4820686,56.5587862 63.0817799,57.5831015 63.8460237,59.1758291 C64.5437067,60.6298405 64.4371079,62.3342157 63.5746332,63.6926163 L63.4523423,63.8756522 L63.3158336,64.0593888 L40.3249731,92.2359479 C38.9094533,93.9842019 36.7789877,95 34.5280893,95 C32.4639439,95 30.4974273,94.1454484 29.0871138,92.6437816 L28.9063518,92.4442593 L28.731028,92.2357285 L5.96287778,64.0790558 C4.89290534,62.6809002 4.69873384,60.8012387 5.46038897,59.2142585 C6.15679635,57.7632282 7.54729423,56.7772689 9.14378313,56.5896364 L9.35314889,56.5697174 L9.58164054,56.5591542 L15.1380845,56.5591562 C15.5970445,56.5605329 15.9856425,56.2373593 16.075467,55.8175452 L16.0907881,55.7190533 L16.096774,55.6150934 L16.096774,45.0277026 C16.096774,44.0125727 16.9203662,43.1900003 17.9358843,43.1900003 C18.841501,43.1900003 19.6025699,43.8467199 19.7506361,44.7383494 L19.7688525,44.8810237 L19.7749947,45.0277026 L19.7749651,55.6216333 C19.7473474,58.0197519 17.9084526,59.9920193 15.5382701,60.2154784 L15.3395525,60.2300235 L15.1353535,60.2359497 L9.58671989,60.2359208 C9.22145304,60.2400792 8.89021018,60.4504152 8.73165239,60.7786077 C8.60515986,61.0404296 8.60548825,61.3427618 8.71875694,61.5896289 L8.77417491,61.6917535 L8.83280069,61.7766392 L31.5806946,89.9170372 C32.3083826,90.7885436 33.3860847,91.2924511 34.5225189,91.2924511 C35.5188057,91.2924511 36.4722426,90.9049726 37.1773278,90.2256394 L37.3245412,90.0756358 L37.4611261,89.9209347 L60.443712,61.7549144 C60.6632956,61.4664386 60.7024478,61.0795633 60.5451444,60.7531221 C60.4051945,60.4626933 60.1306767,60.2635609 59.8237189,60.2169509 L59.7072886,60.2067412 L55.9266912,60.2177665 L54.1847098,60.234554 C52.9533761,60.2402798 51.7701684,59.7570983 50.8954562,58.8912617 C50.1347151,58.1382399 49.6601131,57.1478662 49.5465327,56.0803622 L49.5277471,55.8504891 L49.5207122,55.6150934 L49.520906,36.3924632 C49.5304489,36.0684715 49.6183684,35.7516164 49.7839945,35.4571974 C54.4317216,27.744263 52.5026757,17.7718592 45.3126079,12.3429215 C38.1220624,6.91362308 27.9882931,7.7789883 21.8250204,14.3485371 C15.6621727,20.9176328 15.4561329,31.0723108 21.347434,37.8853579 C27.2391379,44.698871 37.3294734,45.9735692 44.7327213,40.8408136 C45.2707091,40.4642292 45.9688305,40.4029221 46.5642918,40.6799321 C47.1600187,40.9570657 47.5626087,41.5307817 47.6202057,42.1850317 C47.6778086,42.8393485 47.3815727,43.4745615 46.8425577,43.8518637 C37.9076909,50.0795582 25.7126048,48.5970205 18.5342792,40.4103457 C11.3555483,32.2232087 11.4927828,19.9527237 18.8528195,11.9278002 C26.2124388,3.90333209 38.4376329,2.69323824 47.230996,9.11872425 Z M83.4064733,5.06732658 C85.8145463,5.06732658 87.8047588,6.91024904 88.0131698,9.28650278 L88.0263836,9.48573042 L88.0307959,9.68679209 L88.0307959,20.8138449 C88.0307959,21.8289748 87.2072037,22.6515472 86.1916855,22.6515472 C85.2860688,22.6515472 84.5249999,21.9948276 84.3769337,21.1031981 L84.3587173,20.9605238 L84.3525751,20.8138449 L84.3525751,9.68679209 C84.3525751,9.23261495 84.029497,8.84890806 83.6113259,8.76252156 L83.5132406,8.74796735 L83.4064733,8.74273121 L69.472057,8.74273121 C69.0165222,8.74273121 68.6322052,9.0654805 68.5457547,9.48247531 L68.5311953,9.58027387 L68.5259553,9.68679209 L68.5259553,26.3773713 C68.5259553,27.2826784 67.8683467,28.0429267 66.9763212,28.1907574 L66.8335887,28.2089416 L66.6868449,28.2150736 L62.1268382,28.2148267 L75.6660227,43.6619327 C75.8085075,43.8124301 75.9908808,43.9163666 76.1893421,43.9634734 L76.3101591,43.9848358 L76.4336948,43.9920661 C76.6482504,43.9920661 76.8564392,43.9268877 77.0226776,43.8150718 L77.1171019,43.7425342 L77.190211,43.674162 L90.7754484,28.2148267 L86.1930781,28.2150736 C85.2698797,28.2150736 84.5052979,27.5352617 84.3739128,26.6489774 L84.3590133,26.5145454 L84.3539677,26.3773713 C84.3539677,25.4720642 85.0115763,24.7118159 85.9036018,24.5639852 L86.0463343,24.545801 L86.1930781,24.539669 L91.7426882,24.5396772 C93.0198568,24.5319191 94.1819143,25.2763594 94.7059799,26.4357539 C95.1785785,27.456739 95.0751584,28.6446079 94.4410808,29.5745635 L94.3236854,29.7359096 L94.1933423,29.8922583 L79.9486576,46.1088963 C79.048223,47.0979999 77.7719672,47.6618212 76.4336948,47.6618212 C75.2597285,47.6618212 74.1309685,47.2277745 73.2553317,46.4426437 L73.0836409,46.280961 L72.9133926,46.1029244 L58.6784976,29.8914169 C57.8696848,28.9267682 57.6889758,27.583105 58.2143019,26.4393602 C58.6812964,25.4226158 59.634467,24.7216845 60.7438602,24.5694167 L60.94119,24.5482888 L61.1414876,24.539669 L64.8487285,24.5392795 L64.849128,9.68589939 C64.8537895,7.35105579 66.5926875,5.41152504 68.8699976,5.10815347 L69.0723035,5.08566304 L69.2714957,5.07211889 L69.4734497,5.06732658 L83.4064733,5.06732658 Z M34.6495195,10.619727 C43.3522708,10.6386409 50.4011087,17.6838702 50.4137207,26.3776969 C50.407389,35.0729594 43.3460869,42.1169753 34.6409118,42.1127644 C25.9357363,42.1085459 18.8812742,35.0576948 18.8833823,26.3624294 C18.8854685,17.764863 25.7856611,10.7783033 34.3557484,10.6223874 L34.6495195,10.619727 Z M34.6485497,14.3062576 C27.972917,14.3062576 22.5615995,19.7108743 22.5615995,26.3773713 C22.5615995,33.0438683 27.972917,38.4484858 34.6476611,38.4484858 C41.3182678,38.435201 46.7222013,33.0379592 46.7355,26.3773713 C46.7355,19.7108743 41.3241825,14.3062576 34.6485497,14.3062576 Z M34.6485497,17.585261 C35.4081953,17.585261 36.0661353,18.0473367 36.3458873,18.7225358 L36.3967133,18.8603435 L36.4287285,18.975468 L37.4337619,18.9761426 C38.3569602,18.9761426 39.1215421,19.6559544 39.2529272,20.5422387 L39.2678267,20.6766708 L39.2728723,20.8138449 C39.2728723,21.719152 38.6152637,22.4794003 37.7232382,22.627231 L37.5805057,22.6454152 L37.4337619,22.6515472 L34.6485497,22.6515472 C34.1258377,22.6515472 33.702448,23.0744126 33.702448,23.5956081 C33.702448,24.1168035 34.1258377,24.539669 34.6485759,24.539669 C36.895791,24.5398009 38.8165742,26.1566031 39.1974921,28.369278 C39.5532316,30.4356966 38.468473,32.4695564 36.5745756,33.3408335 L36.4849881,33.3791805 L36.4826145,33.4689534 C36.4192555,34.3270306 35.766301,35.0210387 34.9272724,35.1485114 L34.7857805,35.1644422 L34.6485497,35.1694816 C33.8889042,35.1694816 33.2309642,34.7074058 32.9512121,34.0322068 L32.9003862,33.8943991 L32.8674101,33.7777446 L31.8633376,33.7786 C30.9401393,33.7786 30.1755574,33.0987881 30.0441723,32.2125038 L30.0292728,32.0780718 L30.0242272,31.9408977 C30.0242272,31.0355906 30.6818358,30.2753422 31.5738613,30.1275116 L31.7165938,30.1093274 L31.8633376,30.1031954 L34.6485497,30.1031954 C35.1712618,30.1031954 35.5946515,29.6803299 35.5946515,29.1591345 C35.5946515,28.637939 35.1712618,28.2150736 34.6483705,28.2150735 C32.3970865,28.2141692 30.4733827,26.5937791 30.0925385,24.3769679 C29.736868,22.3066869 30.824292,20.2695194 32.7219024,19.3973241 L32.8111505,19.3579465 L32.8144849,19.2857892 C32.877844,18.4277119 33.5307985,17.7337038 34.3698271,17.6062311 L34.5113189,17.5903004 L34.6485497,17.585261 Z" fill="#181818" fill-rule="nonzero"></path>
    </g>
</svg>