<?xml version="1.0" encoding="UTF-8"?>
<svg width="100px" height="100px" viewBox="0 0 100 100" version="1.1" xmlns="http://www.w3.org/2000/svg" xmlns:xlink="http://www.w3.org/1999/xlink">
    <!-- Generator: Sketch 62 (91390) - https://sketch.com -->
    <title>genuine</title>
    <desc>Created with Sketch.</desc>
    <g id="genuine" stroke="none" stroke-width="1" fill="none" fill-rule="evenodd">
        <path d="M70.5975518,11.204174 L70.7909988,11.3000007 L70.838129,11.2583337 C75.0981129,7.56906308 81.542653,11.7522354 80.0791144,17.1074291 L80.0261427,17.2904367 L80.0044352,17.3572377 L80.3735944,17.6764722 C80.7696321,18.0244652 81.1596502,18.3799474 81.5429593,18.7422815 L82.112805,19.2908416 L82.4539262,19.6313614 L82.5161466,19.6064978 C87.8238453,17.498723 92.5643879,23.5811502 89.3376145,28.1685774 L89.186685,28.3723304 L89.2894317,28.5446742 C95.7981638,39.6533718 96.8071034,53.9738731 91.9868071,65.8807777 L91.7908856,66.3557533 L91.5914066,66.8219577 C91.5670276,66.8951857 91.5367366,66.9673002 91.5102454,67.0195305 C89.0962925,72.6232153 85.5092953,77.6586064 80.9611975,81.8006779 L80.7208378,82.0150516 L80.7442591,82.0742708 C82.7958865,87.5836377 76.2145351,92.1810071 71.7498192,88.4811761 L71.6034118,88.3561879 L71.5599732,88.3169897 L71.3971151,88.4028986 C59.5958317,94.4545197 44.8959507,94.5313194 33.0209129,88.6336473 L32.5596909,88.4008449 L32.3797011,88.3072372 L32.3260877,88.3516611 C28.0015076,91.7532077 21.8345953,87.6053624 23.2737324,82.3695999 L23.3270349,82.1865259 L23.3498206,82.1143506 L23.180721,81.9639507 C14.3608684,74.0154623 9.16657158,62.5912362 8.95504617,50.744185 L8.94890938,50.2134476 L8.94870261,50.0203921 L8.8639631,49.9921615 C3.06171669,47.98896 4.05659866,39.5781513 10.0929699,38.9167913 L10.3055831,38.8968863 L10.3993288,38.8900417 L10.5021972,38.5056843 C11.4724452,34.9968356 12.8823355,31.6375195 14.7087136,28.4833206 L15.0795355,27.8552322 L15.4614226,27.2327124 C16.0140176,26.3488359 17.0331807,26.1985056 17.8512485,26.7210527 C18.659512,27.2373374 18.9701874,28.2183875 18.435717,29.0735867 C16.4215783,32.2955473 14.894079,35.7665543 13.8838483,39.4133215 L13.7844202,39.7828458 L13.9486968,39.8904376 C14.4694162,40.2505444 14.927296,40.6941739 15.3028066,41.2017039 L15.4586398,41.4230718 L15.5700804,41.5985984 L16.2128503,41.4680791 C20.6924724,40.5813593 25.2388073,40.0682637 29.7862989,39.9352673 L30.7607552,39.9125883 L31.4592485,39.9043097 L31.5276305,39.7770347 C32.7077133,37.6667849 35.1672783,36.5057341 37.5390997,36.9212658 L37.7611592,36.9648599 L37.870339,36.9900623 L38.2024302,36.5462363 C40.4483123,33.5757757 42.9639976,30.8200297 45.7147226,28.3160274 L46.3536617,27.7426664 L46.7460682,27.3997325 L46.674871,27.2334881 C46.3122468,26.3277712 46.1864751,25.3233712 46.3108729,24.354511 L46.3510121,24.0912584 L46.3878669,23.9074232 L45.9752337,23.6665362 C42.4873068,21.665646 38.7908004,20.0428314 34.9394194,18.8209059 L34.1670941,18.5818728 L33.733203,18.4539594 L33.7104171,18.4940358 C32.1385453,21.1197395 28.6511981,22.039412 25.9959185,20.558519 L25.7601054,20.4186604 L25.4480583,20.6970463 C24.6981338,21.3764205 23.9746577,22.0831863 23.2820731,22.8131866 L22.7684963,23.3649783 L22.2669202,23.9250933 C21.5968026,24.688174 20.5687765,24.670344 19.8411259,24.040605 C19.1121076,23.4096825 18.9555854,22.3991063 19.6291373,21.6320304 C20.7402247,20.3666889 21.937267,19.1565803 23.2023142,18.0184436 L23.506645,17.7482274 L23.4847329,17.695422 C21.2765149,12.0599878 28.143104,7.357123 32.5997318,11.3256436 L32.7779996,11.4915058 L32.9499067,11.404911 C44.5640684,5.60391657 58.9173875,5.52805494 70.5975518,11.204174 Z M76.3039128,56.7709487 L76.1288917,56.9154547 L75.9163069,57.072392 L76.0634535,57.6329725 C76.505289,59.3708877 76.8713739,61.1306853 77.1572507,62.8918389 L77.2934844,63.7724336 C77.4448489,64.801942 76.7730526,65.5900803 75.8180273,65.7308665 C74.8630516,65.8716453 73.9912102,65.310911 73.8399595,64.2831276 C73.5655952,62.418093 73.1941588,60.5485758 72.7317848,58.7021736 L72.5793321,58.1150312 L72.3889556,58.1112417 C71.8318644,58.0854247 71.280309,57.9773543 70.7552256,57.7909674 L70.5682368,57.7196085 L70.3118926,58.0429681 C61.0290778,69.6348262 48.9202932,78.4109658 35.0992885,83.5637888 L34.6964259,83.7111135 L34.6941175,83.9489934 C34.6796121,84.3327953 34.6272886,84.7200471 34.5395097,85.0926387 L34.493267,85.2662062 L34.7018459,85.3721835 C39.9018029,87.9599169 45.6554914,89.3585638 51.4812175,89.4489316 L52.084116,89.4536083 C58.1644072,89.4536083 64.1826357,88.0260574 69.5964458,85.3063959 L69.8259938,85.1881856 L69.8184568,85.1510775 C69.1989804,82.1465678 71.1340137,79.0800512 74.1050521,78.3806455 L74.1573782,78.3684743 L74.2114166,77.8228411 C74.3693131,76.0784319 74.448716,74.3270715 74.448502,72.5892022 L74.4417551,71.7214864 C74.4255912,70.6805373 75.1947914,69.9854613 76.160182,69.9705121 C77.1255898,69.9555627 77.9160612,70.6265275 77.9321216,71.6674054 C77.965056,73.801967 77.8837998,75.960523 77.690264,78.1093585 L77.6324654,78.695629 L77.8342272,78.7865297 C78.005086,78.8683546 78.1716193,78.9586191 78.3332213,79.0569543 L78.4958909,79.1610929 L78.6731193,78.9997577 C82.4457646,75.5040455 85.4902055,71.324065 87.6611094,66.6839199 L87.7815022,66.4206806 L87.3066393,65.9387495 C84.0766132,62.7043335 80.562071,59.751108 76.8215286,57.1286216 L76.3039128,56.7709487 Z M72.7210088,83.6838336 C72.7210088,84.9097057 73.7209151,85.9072166 74.9485414,85.9072166 C76.1272088,85.9072166 77.09589,84.9879313 77.1714986,83.8297954 L77.1762488,83.6951547 L77.1650497,83.5340321 C76.893139,80.7329116 72.8417808,80.7881267 72.7210088,83.6838336 Z M28.6140449,81.4742269 C27.3861602,81.4742269 26.3865122,82.4689041 26.3865122,83.6907217 C26.3865122,84.9125394 27.3861602,85.9072166 28.6140449,85.9072166 C29.8419718,85.9072166 30.8417522,84.9124973 30.8417522,83.6907217 C30.8417522,82.5084312 29.8106568,81.4742269 28.6140449,81.4742269 Z M42.4574541,44.2841035 L42.4096762,44.4521292 C41.5704936,47.1959436 38.6796882,48.9293307 35.8452997,48.3812799 L35.6284622,48.3340828 L35.5034793,48.5904135 C31.0850939,57.7495683 29.2595104,67.8208621 30.1849518,77.9335864 L30.2135634,78.2354847 L30.3204316,78.2536924 C31.7082328,78.5208578 32.941182,79.294523 33.7878223,80.4094034 L33.8508214,80.4963094 L34.2137374,80.3647417 C47.4372397,75.4900793 59.021329,67.204093 67.9051125,56.2655024 L68.1561698,55.9526189 L68.0703601,55.8170442 C67.369464,54.6666817 67.0973415,53.2746922 67.3135508,51.9477119 L67.3390788,51.8077735 L66.8663305,51.574007 C59.288386,47.8805529 51.2531255,45.4542867 42.9229978,44.3439771 L42.4574541,44.2841035 Z M30.3329638,43.3576086 L30.138119,43.3637006 C28.6854903,43.4101366 26.8196624,43.5648797 24.6366205,43.8084774 C23.6336729,43.9203926 22.581995,44.0491082 21.49686,44.1913873 C20.3698299,44.3391596 19.2525836,44.4953972 18.1769673,44.6533247 L16.0396627,44.9774231 L16.0329738,45.10882 C15.9132039,46.772248 15.2036929,48.0471847 14.0866018,48.9659833 L13.916004,49.1011361 C13.4529846,49.4544896 12.958613,49.7246566 12.4638294,49.9235807 L12.3191959,49.9797921 L12.1315261,50.0452168 L12.133207,50.1843731 C12.2830905,60.3897221 17.2866216,72.3785593 24.8601235,79.4923413 L24.9323218,79.5591754 L25.084333,79.4472225 C25.2453179,79.3347699 25.4118467,79.2308423 25.5832886,79.1359092 L25.8117862,79.0165774 L25.7786194,78.667786 C24.7664695,67.6089937 26.7280638,56.5906697 31.488769,46.5933429 L31.6481507,46.2621035 L31.5095148,46.0940503 C30.9129518,45.33635 30.5121495,44.4369111 30.350151,43.4722841 L30.3329638,43.3576086 Z M86.0858379,30.1375469 L85.863815,30.2000371 C85.5729328,30.2732724 85.2761038,30.3249252 84.975572,30.3541669 L84.7011493,30.3733819 L84.5279728,30.9213369 C82.6080393,36.8695317 79.9793723,42.5784294 76.6915317,47.9398321 L76.401037,48.4058973 L76.4669527,48.4761481 C77.6863969,49.8367189 78.1688665,51.7133801 77.7459846,53.4617139 L77.718006,53.5658972 L78.2557824,53.9185189 C82.0405788,56.4321021 85.613184,59.2451925 88.9217944,62.3163391 L89.1394594,62.5205363 L89.2589687,62.1991311 C93.0113,51.8305448 91.8597859,39.7659998 86.1677452,30.270569 L86.0858379,30.1375469 Z M72.2772669,50.4432993 L72.1357746,50.4480258 C70.9718215,50.5232571 70.0478647,51.4871013 70.0478647,52.6597941 C70.0478647,53.8813492 71.050422,54.876289 72.2641802,54.8766626 C75.1918057,54.7569809 75.2485155,50.7249915 72.433049,50.4544416 L72.2772669,50.4432993 Z M54.9330173,30.1561655 L54.8162403,30.2251578 C53.076316,31.1861015 50.9060427,31.1860645 49.1661179,30.2251531 L49.0485363,30.1561655 L48.6484934,30.5009088 C45.8676966,32.9262122 43.329208,35.6170406 41.0708595,38.5331235 L40.7769376,38.9166396 L40.9032594,39.0637398 C41.2086257,39.4385797 41.4649812,39.8502673 41.6654782,40.2891671 L41.7811487,40.5612788 L42.3833855,40.6340168 C51.4242333,41.7676488 60.1433033,44.3508565 68.3530505,48.3276771 L68.8574246,48.5752375 L69.0472178,48.4067839 L68.8930599,48.0890869 C65.5738071,41.3848253 60.8910053,35.3269567 55.2220816,30.4040467 L54.9330173,30.1561655 Z M10.7949541,42.4639179 L10.6534622,42.4686446 C9.48951168,42.5438786 8.56555197,43.5077574 8.56555197,44.680499 C8.56555197,45.902054 9.5682249,46.8970515 10.7818669,46.8972813 C13.7094932,46.7775957 13.7662029,42.7456138 10.9507357,42.4750604 L10.7949541,42.4639179 Z M69.496306,18.6064542 L69.0287253,18.7461005 C65.032276,19.9635407 61.1957882,21.5960463 57.5809878,23.6174636 L57.1490537,23.8622067 L57.1856703,24.0380161 C57.3747003,25.0799186 57.2588971,26.1766964 56.8558756,27.1579618 L56.7863972,27.3146191 L57.0795888,27.5641864 C63.1610819,32.7936628 68.178552,39.2314564 71.7254455,46.3563115 L71.9039177,46.7204746 L72.1242082,46.7048222 C72.585624,46.6808263 73.0559943,46.7101622 73.5106497,46.7912829 L73.7154183,46.8321859 L74.0151157,46.3436215 C77.1011275,41.2350811 79.572846,35.79884 81.3841822,30.1364519 L81.5459483,29.6188871 L81.5009809,29.5914594 C78.9103168,27.9417344 78.0972393,24.476515 79.7020499,21.8999298 L79.7175177,21.8753408 L79.3977515,21.5674559 C79.0036632,21.1954831 78.601491,20.8310216 78.1921276,20.4748736 L77.847208,20.1801655 L77.8169256,20.203022 C75.1742483,22.105149 71.2495197,21.3586631 69.5207712,18.6471405 L69.496306,18.6064542 Z M36.6336517,40.6907221 C35.4060378,40.6907221 34.4060899,41.6882173 34.405566,42.8958083 C34.5286648,45.8661461 38.7380424,45.8665663 38.8611843,42.9140725 C38.8611843,41.6882195 37.8612793,40.6907221 36.6336517,40.6907221 Z M51.7831626,22.9587634 L51.6416095,22.9634901 C50.4776952,23.0387239 49.5537605,24.0026006 49.5537605,25.1753446 C49.5537605,26.3968026 50.5563163,27.3917531 51.77001,27.3921268 C54.6977218,27.2724406 54.7544332,23.2404598 51.9388838,22.969906 L51.7831626,22.9587634 Z M84.7457017,22.9587634 L84.5926477,22.9698845 C81.7774472,23.2400388 81.8330715,27.2720275 84.7432712,27.3917531 C85.9752604,27.3917531 86.9777769,26.396817 86.9777769,25.1752583 C86.9777769,24.0025619 86.0538577,23.0387209 84.8899589,22.96349 L84.7457017,22.9587634 Z M35.093757,14.3687351 L34.6252706,14.5997177 L34.4629714,14.6814852 L34.5013549,14.9062202 L34.5298,15.1655676 L35.019208,15.3093862 C39.4808414,16.6520744 43.7576828,18.503719 47.7771339,20.8327647 L48.1868928,21.0738562 L48.2515785,21.0155591 C50.3884184,19.1196353 53.6972158,19.1198786 55.8337979,21.0157602 L55.8971313,21.0747428 L56.3175288,20.827564 C60.1507531,18.6075326 64.2193172,16.8206043 68.4564516,15.4964059 L68.9465294,15.3464336 L68.9637896,15.1242984 C68.9820462,14.9417576 69.0088898,14.7607403 69.0441654,14.581665 L69.0810776,14.4146192 L68.9398648,14.3450516 C58.4319808,9.26678901 45.591922,9.2857035 35.093757,14.3687351 Z M74.9485414,13.2061862 C73.7209151,13.2061862 72.7210088,14.2036971 72.7206305,15.4113052 C72.8437275,18.3816344 77.0531056,18.3819846 77.1762488,15.4295692 C77.1762488,14.2036745 76.17632,13.2061862 74.9485414,13.2061862 Z M26.3865122,15.4157929 C26.3865122,16.641665 27.3864185,17.6391759 28.6140449,17.6391759 C29.7926068,17.6391759 30.7613849,16.7198311 30.8370015,15.5617475 L30.8417522,15.427114 L30.8305532,15.2659914 C30.5586424,12.4648709 26.5072842,12.520086 26.3865122,15.4157929 Z" fill="#181818" fill-rule="nonzero"></path>
    </g>
</svg>