<?xml version="1.0" encoding="UTF-8"?>
<svg width="138px" height="88px" viewBox="0 0 99 63" version="1.1" xmlns="http://www.w3.org/2000/svg" xmlns:xlink="http://www.w3.org/1999/xlink">
    <!-- Generator: Sketch 62 (91390) - https://sketch.com -->
    <title>plgd-logo-symbol-white</title>
    <desc>Created with Sketch.</desc>
    <g id="plgd-logo-symbol-white" stroke="none" stroke-width="1" fill="none" fill-rule="evenodd">
        <path d="M47,63 C39.6557174,63 29.0523217,62.9090096 21.2398737,62.9090096 C9.51067551,62.9090096 0,53.526115 0,41.9554938 C0,30.3828946 9.51067551,21 21.2398737,21 C21.4393703,21 21.6358595,21.0118683 21.8333511,21.0178025 C21.3792206,22.9424481 21.1316042,24.9452268 21.1316042,27.006358 C21.1316042,41.5588942 32.2492801,62.9040644 46.9989975,62.9040644 L47,63 Z" id="Fill-16" fill="#FEBF40"></path>
        <path d="M92.9784201,51.6033993 L93.9095412,53 C97.1001167,48.8101979 99,43.5716991 99,37.8846135 C99,24.141903 87.928574,13 74.271801,13 C73.1623802,13 72.0717798,13.0807457 71,13.2242935 C76.5173878,22.0943528 89.5213854,45.393959 92.9784201,51.6033993" id="Fill-18" fill="#87CEF2"></path>
        <path d="M93.0549448,51.771024 C88.9908059,44.5374097 71.9025617,14.1930535 68.7604035,10.2065106 C63.8675856,3.99054551 56.2650074,0 47.7253999,0 C32.9696966,0 21,11.9326116 21,26.6550028 C21,41.3783947 32.1249656,62.9741703 46.8856852,62.9741703 C51.2698587,62.9741703 53.6435325,62.9241384 71.7370266,62.9741703 C71.8865098,62.9751709 72.0279671,62.9701677 72.1754439,62.9701677 C74.5260431,63.0802379 79.5803832,62.9931824 84.3829091,60.7877756 C85.1544033,60.4245439 89.8345336,58.4722986 94,53.1759201 L93.0549448,51.771024 Z" id="Fill-20" fill="#FFFFFF"></path>
    </g>
</svg>