<?xml version="1.0" encoding="UTF-8"?>
<svg width="197px" height="63px" viewBox="0 0 197 63" version="1.1" xmlns="http://www.w3.org/2000/svg" xmlns:xlink="http://www.w3.org/1999/xlink">
    <!-- Generator: Sketch 62 (91390) - https://sketch.com -->
    <title>plgd-logo-short-blue</title>
    <desc>Created with Sketch.</desc>
    <g id="plgd-logo-short-blue" stroke="none" stroke-width="1" fill="none" fill-rule="evenodd">
        <path d="M157.398349,34 C160.413602,34 162.70436,34.9920239 164.275591,36.9830508 L164.275591,34.3110668 L170,34.3110668 L170,51.6779661 C170,55.5014955 169.005185,58.3479561 167.020525,60.2113659 C165.035864,62.0687936 162.137882,63 158.326578,63 C156.317072,63 154.407942,62.7547358 152.607138,62.2632104 C150.801365,61.7716849 149.305665,61.0598205 148.123018,60.1296112 C148.362529,59.6989033 150.280603,56.224327 150.521108,55.7886341 C151.392689,56.5154536 152.499806,57.0887338 153.841464,57.5134596 C155.184116,57.9431705 156.520805,58.1525424 157.862464,58.1525424 C159.949488,58.1525424 161.489911,57.6829511 162.479756,56.7407777 C163.474571,55.7936191 163.969494,54.3649053 163.969494,52.4506481 L163.969494,51.560319 C162.398263,53.2961117 160.203906,54.1605184 157.398349,54.1605184 C155.490213,54.1605184 153.745063,53.7407777 152.158925,52.9022931 C150.576762,52.0568295 149.321566,50.8743769 148.393337,49.3489531 C147.464114,47.8295115 147,46.0687936 147,44.0777667 C147,42.0867398 147.464114,40.33001 148.393337,38.8055833 C149.321566,37.2801595 150.576762,36.0977069 152.158925,35.2582253 C153.745063,34.4187438 155.490213,34 157.398349,34 Z M119.478766,34 C121.442353,34 123.229359,34.450417 124.840791,35.3552814 C126.44617,36.2551077 127.710494,37.5227241 128.621655,39.1520848 C129.53887,40.7874913 130,42.685893 130,44.8583739 C130,47.0248089 129.53887,48.9242182 128.621655,50.5586171 C127.710494,52.193016 126.44617,53.4555942 124.840791,54.3614663 C123.229359,55.2612926 121.442353,55.7117095 119.478766,55.7117095 C116.785645,55.7117095 114.666667,54.8632731 113.122839,53.1603544 L113.122839,63 L107,63 L107,34.3103544 L112.848381,34.3103544 L112.848381,36.7417999 C114.365974,34.9159486 116.577784,34 119.478766,34 Z M197,26 L197,54.693795 L191.150336,54.693795 L191.150336,52.2948577 C189.63241,54.1012684 187.435254,55 184.554829,55 C182.570626,55 180.767081,54.566541 179.160341,53.688687 C177.549563,52.8098389 176.291018,51.5601646 175.372592,49.9376757 C174.456185,48.3141927 174,46.4302365 174,44.2917724 C174,42.1543024 174.456185,40.2703462 175.372592,38.6468632 C176.291018,37.0233802 177.549563,35.7737059 179.160341,34.8958519 C180.767081,34.0179979 182.570626,33.5835447 184.554829,33.5835447 C187.253587,33.5835447 189.357892,34.4206376 190.875817,36.0958176 L190.875817,26 L197,26 Z M139.26049,26 L139.26049,47.461193 C139.26049,48.3400411 139.499014,49.0140898 139.965737,49.4932808 C140.43246,49.968495 141.09434,50.2080905 141.95344,50.2080905 C142.276636,50.2080905 142.599831,50.1673294 142.939548,50.0907782 C143.273069,50.0142269 143.533277,49.9217689 143.718108,49.8193692 C143.750117,50.2896126 143.973153,54.0306822 144,54.4999314 C142.955036,54.8319849 141.873932,55 140.750493,55 C138.311555,55 136.408523,54.3776483 135.045527,53.1279739 C133.6784,51.8773055 133,50.106685 133,47.8091532 L133,26 L139.26049,26 Z M118.422304,39.0180681 C116.852242,39.0180681 115.562692,39.5460737 114.557691,40.6061154 C113.547644,41.6611188 113.045143,43.0778666 113.045143,44.8583739 C113.045143,46.6328353 113.547644,48.049583 114.557691,49.1106324 C115.562692,50.1656359 116.852242,50.6936414 118.422304,50.6936414 C119.992366,50.6936414 121.281916,50.1656359 122.285909,49.1106324 C123.291919,48.049583 123.799465,46.6328353 123.799465,44.8583739 C123.799465,43.0778666 123.291919,41.6611188 122.285909,40.6061154 C121.281916,39.5460737 119.992366,39.0180681 118.422304,39.0180681 Z M185.616569,38.5295509 C184.047172,38.5295509 182.752293,39.0504971 181.730923,40.0963661 C180.710562,41.1382585 180.196849,42.5360644 180.196849,44.2917724 C180.196849,46.0435036 180.710562,47.4413096 181.730923,48.4881728 C182.752293,49.529071 184.047172,50.0490731 185.616569,50.0490731 C187.160735,50.054988 188.445522,49.529071 189.460836,48.4881728 C190.482206,47.4413096 190.99491,46.0435036 190.99491,44.2917724 C190.99491,42.5360644 190.482206,41.1382585 189.460836,40.0963661 C188.440476,39.0504971 187.160735,38.5295509 185.616569,38.5295509 Z M158.596898,38.9591226 C156.999827,38.9591226 155.684008,39.4297109 154.653416,40.3768694 C153.627792,41.3180459 153.112993,42.552343 153.112993,44.0777667 C153.112993,45.6021934 153.627792,46.8364905 154.653416,47.7836491 C155.684008,48.7248255 156.999827,49.1964108 158.596898,49.1964108 C160.193968,49.1964108 161.499849,48.7248255 162.520503,47.7836491 C163.541157,46.8364905 164.046018,45.6021934 164.046018,44.0777667 C164.046018,42.552343 163.541157,41.3180459 162.520503,40.3768694 C161.499849,39.4297109 160.193968,38.9591226 158.596898,38.9591226 Z" id="Combined-Shape" fill="#2261AE"></path>
        <path d="M47,63 C39.6557174,63 29.0523217,62.9090096 21.2398737,62.9090096 C9.51067551,62.9090096 0,53.526115 0,41.9554938 C0,30.3828946 9.51067551,21 21.2398737,21 C21.4393703,21 21.6358595,21.0118683 21.8333511,21.0178025 C21.3792206,22.9424481 21.1316042,24.9452268 21.1316042,27.006358 C21.1316042,41.5588942 32.2492801,62.9040644 46.9989975,62.9040644 L47,63 Z" id="Fill-16" fill="#FEBF40"></path>
        <path d="M92.9784201,51.6033993 L93.9095412,53 C97.1001167,48.8101979 99,43.5716991 99,37.8846135 C99,24.141903 87.928574,13 74.271801,13 C73.1623802,13 72.0717798,13.0807457 71,13.2242935 C76.5173878,22.0943528 89.5213854,45.393959 92.9784201,51.6033993" id="Fill-18" fill="#87CEF2"></path>
        <path d="M93.0549448,51.771024 C88.9908059,44.5374097 71.9025617,14.1930535 68.7604035,10.2065106 C63.8675856,3.99054551 56.2650074,0 47.7253999,0 C32.9696966,0 21,11.9326116 21,26.6550028 C21,41.3783947 32.1249656,62.9741703 46.8856852,62.9741703 C51.2698587,62.9741703 53.6435325,62.9241384 71.7370266,62.9741703 C71.8865098,62.9751709 72.0279671,62.9701677 72.1754439,62.9701677 C74.5260431,63.0802379 79.5803832,62.9931824 84.3829091,60.7877756 C85.1544033,60.4245439 89.8345336,58.4722986 94,53.1759201 L93.0549448,51.771024 Z" id="Fill-20" fill="#2261AE"></path>
    </g>
</svg>