<svg id="Capa_1" enable-background="new 0 0 512 512" height="512" viewBox="0 0 512 512" width="512" xmlns="http://www.w3.org/2000/svg"><g id="XMLID_1371_"><g id="XMLID_174_"><path id="XMLID_175_" d="m405.652 60.486c3.181-4.516 2.098-10.754-2.418-13.934-43.247-30.455-94.16-46.552-147.234-46.552-33.224 0-65.553 6.274-96.09 18.647-5.118 2.074-7.586 7.905-5.512 13.023 2.073 5.118 7.901 7.587 13.023 5.513 28.14-11.402 57.941-17.183 88.579-17.183 48.93 0 95.86 14.836 135.719 42.904 1.751 1.232 3.76 1.825 5.749 1.825 3.143 0 6.237-1.478 8.184-4.243z"/><path id="XMLID_216_" d="m512 256c0-51.165-15.047-100.553-43.515-142.825-3.086-4.582-9.301-5.793-13.881-2.709-4.581 3.085-5.794 9.299-2.709 13.88 26.237 38.96 40.105 84.485 40.105 131.654 0 50.159-15.391 97.711-44.571 138.041-4.782-2.174-10.084-3.395-15.67-3.395-20.953 0-38 17.047-38 38s17.047 38 38 38 38-17.047 38-38c0-8.11-2.562-15.629-6.908-21.806 32.173-43.989 49.149-95.979 49.149-150.84zm-80.241 190.646c-9.925 0-18-8.075-18-18s8.075-18 18-18 18 8.075 18 18-8.075 18-18 18z"/><path id="XMLID_219_" d="m344.578 474.816c-28.138 11.403-57.94 17.184-88.578 17.184-130.131 0-236-105.869-236-236 0-50.159 15.391-97.711 44.571-138.041 4.782 2.174 10.084 3.395 15.67 3.395 20.953 0 38-17.047 38-38s-17.047-38-38-38-38 17.047-38 38c0 8.11 2.562 15.629 6.908 21.806-32.173 43.989-49.149 95.979-49.149 150.84 0 68.38 26.629 132.667 74.98 181.019 48.353 48.353 112.64 74.981 181.02 74.981 33.224 0 65.553-6.274 96.09-18.647 5.118-2.074 7.586-7.905 5.512-13.023-2.075-5.12-7.907-7.587-13.024-5.514zm-264.337-409.462c9.925 0 18 8.075 18 18s-8.075 18-18 18-18-8.075-18-18 8.075-18 18-18z"/><path id="XMLID_222_" d="m256 233.77c-21.115 0-38.293 17.178-38.293 38.292 0 8.754 2.918 17.059 8.293 23.805v29.862c0 16.542 13.458 30 30 30s30-13.458 30-30v-29.862c5.375-6.747 8.293-15.051 8.293-23.805 0-21.114-17.178-38.292-38.293-38.292zm12.931 51.23c-1.876 1.876-2.931 4.42-2.931 7.073v33.656c0 5.514-4.486 10-10 10s-10-4.486-10-10v-33.656c0-2.653-1.055-5.198-2.931-7.073-3.458-3.456-5.362-8.05-5.362-12.938 0-10.086 8.206-18.292 18.293-18.292s18.293 8.206 18.293 18.292c0 4.888-1.904 9.483-5.362 12.938z"/><path id="XMLID_225_" d="m347.951 195.621v-20.502c0-50.702-41.249-91.951-91.951-91.951s-91.951 41.249-91.951 91.951v20.502c-12.947 5.511-22.049 18.36-22.049 33.296v131.665c0 19.943 16.225 36.168 36.167 36.168h155.666c19.942 0 36.167-16.225 36.167-36.168v-131.665c0-14.936-9.102-27.785-22.049-33.296zm-163.902-20.502c0-39.674 32.277-71.951 71.951-71.951s71.951 32.277 71.951 71.951v17.631h-20.976v-17.631c0-28.108-22.867-50.975-50.976-50.975s-50.976 22.868-50.976 50.975v17.631h-20.976v-17.631zm40.975 17.631v-17.631c0-17.08 13.896-30.975 30.976-30.975s30.976 13.895 30.976 30.975v17.631zm124.976 167.832c0 8.915-7.253 16.168-16.167 16.168h-155.666c-8.914 0-16.167-7.253-16.167-16.168v-131.665c0-8.915 7.253-16.167 16.167-16.167h155.666c8.914 0 16.167 7.253 16.167 16.167z"/><path id="XMLID_233_" d="m431.76 93.88c2.63 0 5.21-1.06 7.07-2.92 1.859-1.86 2.93-4.44 2.93-7.07 0-2.64-1.07-5.22-2.93-7.08s-4.441-2.92-7.07-2.92c-2.63 0-5.21 1.06-7.07 2.92-1.859 1.86-2.93 4.44-2.93 7.08 0 2.63 1.07 5.2 2.93 7.07 1.86 1.86 4.44 2.92 7.07 2.92z"/></g></g></svg>   