<?xml version="1.0" encoding="UTF-8"?>
<svg width="100px" height="100px" viewBox="0 0 100 100" version="1.1" xmlns="http://www.w3.org/2000/svg" xmlns:xlink="http://www.w3.org/1999/xlink">
    <!-- Generator: Sketch 62 (91390) - https://sketch.com -->
    <title>secure</title>
    <desc>Created with Sketch.</desc>
    <g id="secure" stroke="none" stroke-width="1" fill="none" fill-rule="evenodd">
        <path d="M19.1048633,12.9723828 C22.7880078,12.9723828 25.7845508,15.9689258 25.7845508,19.6520703 C25.7845508,23.3352148 22.7880078,26.3317578 19.1048633,26.3317578 C18.1229492,26.3317578 17.190957,26.1171289 16.3503711,25.7349805 C11.2210742,32.8242383 8.515625,41.1829883 8.515625,50 C8.515625,72.8745898 27.1254102,91.484375 50,91.484375 C55.3855859,91.484375 60.6242188,90.4681836 65.5703516,88.46375 C66.4698242,88.0993555 67.4949805,88.5330078 67.8597266,89.4330078 C68.2242969,90.3326563 67.7904688,91.3576367 66.8908203,91.722207 C61.5229883,93.8971484 55.8401563,95 50,95 C37.9800781,95 26.6796289,90.3192969 18.1800781,81.8197461 C9.68087891,73.3203711 5,62.0199219 5,50 C5,40.3564648 7.9840625,31.2175977 13.6394727,23.4851563 C12.8755273,22.3993555 12.4251758,21.0776563 12.4251758,19.6520703 C12.4251758,15.9689258 15.4217188,12.9723828 19.1048633,12.9723828 Z M84.9108594,24.4178516 C85.7159375,23.8757422 86.808418,24.0886133 87.3508789,24.894043 C92.3550195,32.324668 95,41.0061523 95,50 C95,59.6435352 92.0159375,68.7824023 86.3605273,76.5148437 C87.1244727,77.6006445 87.5748242,78.9223437 87.5748242,80.3479297 C87.5748242,84.0310742 84.5782813,87.0276172 80.8951367,87.0276172 C77.2119922,87.0276172 74.2154492,84.0310742 74.2154492,80.3479297 C74.2154492,76.6647852 77.2119922,73.6682422 80.8951367,73.6682422 C81.8770508,73.6682422 82.809043,73.8828711 83.6496289,74.2650195 C88.7789258,67.1757617 91.484375,58.8170117 91.484375,50 C91.484375,41.7085742 89.0466406,33.7061328 84.434668,26.8576953 C83.8923828,26.0524414 84.1056055,24.9601367 84.9108594,24.4178516 Z M80.8951367,77.1838672 C79.1505078,77.1838672 77.7310742,78.6033008 77.7310742,80.3479297 C77.7310742,82.0925586 79.1505078,83.5119922 80.8951367,83.5119922 C82.6397656,83.5119922 84.0591992,82.0925586 84.0591992,80.3479297 C84.0591992,78.6033008 82.6397656,77.1838672 80.8951367,77.1838672 Z M50,19.619375 C58.9124609,19.619375 66.1632617,26.8701758 66.1632617,35.7826367 L66.1632617,35.7826367 L66.1632617,39.3865039 C68.4391016,40.3552344 70.0390625,42.6138477 70.0390625,45.2393164 L70.0390625,45.2393164 L70.0390625,68.3835547 C70.0390625,71.8891602 67.1870117,74.7412109 63.681582,74.7412109 L63.681582,74.7412109 L36.318418,74.7412109 C32.8129883,74.7412109 29.9609375,71.8891602 29.9609375,68.3835547 L29.9609375,68.3835547 L29.9609375,45.2393164 C29.9609375,42.6138477 31.5608984,40.3552344 33.8367383,39.3865039 L33.8367383,39.3865039 L33.8367383,35.7826367 C33.8367383,26.8701758 41.0875391,19.619375 50,19.619375 Z M63.681582,42.3974609 L36.318418,42.3974609 C34.7515039,42.3974609 33.4765625,43.6722266 33.4765625,45.2393164 L33.4765625,45.2393164 L33.4765625,68.3835547 C33.4765625,69.9506445 34.7515039,71.2255859 36.318418,71.2255859 L36.318418,71.2255859 L63.681582,71.2255859 C65.2484961,71.2255859 66.5234375,69.9506445 66.5234375,68.3835547 L66.5234375,68.3835547 L66.5234375,45.2393164 C66.5234375,43.6724023 65.2484961,42.3974609 63.681582,42.3974609 L63.681582,42.3974609 Z M50,46.0923828 C53.7116211,46.0923828 56.7311914,49.1119531 56.7311914,52.8233984 C56.7311914,54.3621875 56.2182617,55.821875 55.2734375,57.0078711 L55.2734375,57.0078711 L55.2734375,62.2570508 C55.2734375,65.1648242 52.9077734,67.5304883 50,67.5304883 C47.0922266,67.5304883 44.7265625,65.1648242 44.7265625,62.2570508 L44.7265625,62.2570508 L44.7265625,57.0078711 C43.7817383,55.8220508 43.2688086,54.3621875 43.2688086,52.8233984 C43.2688086,49.1119531 46.2883789,46.0923828 50,46.0923828 Z M50,49.6080078 C48.2268945,49.6080078 46.7844336,51.0504688 46.7844336,52.8233984 C46.7844336,53.6826172 47.1191211,54.4901562 47.7269727,55.0976562 C48.0567383,55.4272461 48.2421875,55.8746094 48.2421875,56.340957 L48.2421875,56.340957 L48.2421875,62.2570508 C48.2421875,63.2263086 49.0307422,64.0148633 50,64.0148633 C50.9692578,64.0148633 51.7578125,63.2263086 51.7578125,62.2570508 L51.7578125,62.2570508 L51.7578125,56.340957 C51.7578125,55.8746094 51.9432617,55.4274219 52.2730273,55.0976562 C52.8808789,54.490332 53.2155664,53.6826172 53.2155664,52.8233984 C53.2155664,51.0504688 51.7731055,49.6080078 50,49.6080078 Z M50,23.135 C43.0260547,23.135 37.3523633,28.8086914 37.3523633,35.7826367 L37.3520117,35.7826367 L37.3520117,38.8818359 L41.0391992,38.8818359 L41.0391992,35.7826367 C41.0391992,30.8419531 45.0587891,26.8221875 49.9998242,26.8221875 C54.9408594,26.8221875 58.9604492,30.8417773 58.9604492,35.7826367 L58.9604492,35.7826367 L58.9604492,38.8818359 L62.6476367,38.8818359 L62.6476367,35.7826367 C62.6476367,28.8086914 56.9739453,23.135 50,23.135 Z M50,30.3378125 C46.9976563,30.3378125 44.555,32.780293 44.555,35.7826367 L44.555,35.7826367 L44.555,38.8818359 L55.445,38.8818359 L55.445,35.7826367 C55.445,32.780293 53.0023438,30.3378125 50,30.3378125 Z M19.1048633,16.4880078 C17.3602344,16.4880078 15.9408008,17.9074414 15.9408008,19.6520703 C15.9408008,21.3966992 17.3602344,22.8161328 19.1048633,22.8161328 C20.8494922,22.8161328 22.2689258,21.3966992 22.2689258,19.6520703 C22.2689258,17.9074414 20.8494922,16.4880078 19.1048633,16.4880078 Z M80.8953125,17.9884766 C81.3574414,17.9884766 81.8111328,18.1748047 82.1380859,18.5017578 C82.4650391,18.8287109 82.653125,19.2822266 82.653125,19.7462891 C82.653125,20.2085937 82.4648633,20.6621094 82.1380859,20.9890625 C81.8111328,21.3160156 81.3576172,21.5023438 80.8953125,21.5023438 C80.4330078,21.5023438 79.9794922,21.3160156 79.6525391,20.9890625 C79.3255859,20.6603516 79.1375,20.2085937 79.1375,19.7462891 C79.1375,19.2822266 79.3257617,18.8287109 79.6525391,18.5017578 C79.9794922,18.1748047 80.4330078,17.9884766 80.8953125,17.9884766 Z M50,5 C59.3294141,5 68.2789648,7.82955078 75.8809766,13.1829687 C76.6748047,13.7419531 76.8651758,14.8384766 76.3060156,15.6323047 C75.9637695,16.1183398 75.4199023,16.3781445 74.8674219,16.3781445 C74.517793,16.3781445 74.1646484,16.2739063 73.8568555,16.0573438 C66.8503906,11.1235156 58.6009766,8.515625 50,8.515625 C44.6144141,8.515625 39.375957,9.53181641 34.4294727,11.5360742 C33.5291211,11.9006445 32.504668,11.4666406 32.1402734,10.5669922 C31.7757031,9.66734375 32.2095313,8.64236328 33.1091797,8.27779297 C38.4770117,6.10285156 44.1598438,5 50,5 Z" fill="#181818" fill-rule="nonzero"></path>
    </g>
</svg>