<?xml version="1.0" encoding="iso-8859-1"?>
<!-- Generator: Adobe Illustrator 19.0.0, SVG Export Plug-In . SVG Version: 6.00 Build 0)  -->
<svg version="1.1" id="Capa_1" xmlns="http://www.w3.org/2000/svg" xmlns:xlink="http://www.w3.org/1999/xlink" x="0px" y="0px"
	 viewBox="0 0 512.001 512.001" style="enable-background:new 0 0 512.001 512.001;" xml:space="preserve">
<g>
	<g>
		<path d="M305.134,301.421H117.846c-4.146,0-7.506,3.361-7.506,7.506c0,4.146,3.361,7.506,7.506,7.506h187.288
			c4.146,0,7.506-3.361,7.506-7.506C312.64,304.781,309.28,301.421,305.134,301.421z"/>
	</g>
</g>
<g>
	<g>
		<path d="M246.976,336.751h-129.13c-4.146,0-7.506,3.361-7.506,7.506c0,4.145,3.361,7.506,7.506,7.506h129.13
			c4.146,0,7.506-3.361,7.506-7.506C254.482,340.112,251.122,336.751,246.976,336.751z"/>
	</g>
</g>
<g>
	<g>
		<path d="M464.816,153.787c4.146,0,7.506-3.361,7.506-7.506v-67.9c0-4.145-3.36-7.506-7.506-7.506h-85.123V7.506
			c0-4.145-3.36-7.506-7.506-7.506H47.185c-4.146,0-7.506,3.361-7.506,7.506v257.802c0,4.145,3.36,7.506,7.506,7.506
			c4.146,0,7.506-3.361,7.506-7.506V15.013h309.99v346.925h-56.669c-4.146,0-7.506,3.361-7.506,7.506v56.669l-245.814,0.001V295.333
			c0-4.145-3.36-7.506-7.506-7.506c-4.146,0-7.506,3.361-7.506,7.506V433.62c0,4.146,3.36,7.506,7.506,7.506h85.123v63.368
			c0,4.146,3.36,7.506,7.506,7.506h260.828c0.061,0,0.12-0.007,0.18-0.009c0.184-0.005,0.368-0.009,0.551-0.027
			c0.143-0.014,0.284-0.04,0.425-0.063c0.099-0.015,0.2-0.025,0.299-0.045c0.151-0.03,0.298-0.072,0.446-0.11
			c0.088-0.023,0.177-0.04,0.263-0.066c0.143-0.043,0.283-0.098,0.423-0.15c0.089-0.033,0.179-0.06,0.267-0.096
			c0.135-0.056,0.265-0.122,0.396-0.185c0.089-0.043,0.18-0.08,0.268-0.126c0.139-0.074,0.273-0.159,0.407-0.242
			c0.074-0.046,0.151-0.086,0.224-0.134c0.181-0.12,0.355-0.252,0.526-0.388c0.022-0.018,0.046-0.032,0.068-0.051
			c0.194-0.158,0.381-0.326,0.56-0.505l64.175-64.176c0.238-0.238,0.451-0.495,0.654-0.761c0.049-0.064,0.097-0.128,0.143-0.193
			c0.19-0.267,0.368-0.541,0.521-0.829c0.007-0.013,0.012-0.027,0.019-0.04c0.145-0.276,0.267-0.563,0.376-0.855
			c0.029-0.076,0.056-0.152,0.082-0.229c0.103-0.306,0.194-0.618,0.258-0.936c0-0.002,0.001-0.004,0.001-0.006
			c0.062-0.313,0.097-0.633,0.119-0.954c0.006-0.084,0.01-0.167,0.012-0.251c0.003-0.085,0.012-0.168,0.012-0.253V176.306
			c0-4.145-3.36-7.506-7.506-7.506s-7.506,3.361-7.506,7.506v256.506H400.64c-4.146,0-7.506,3.361-7.506,7.506v56.669H147.319
			v-55.862h160.693c0.061,0,0.12-0.008,0.18-0.009c0.184-0.004,0.368-0.009,0.551-0.027c0.143-0.014,0.284-0.04,0.425-0.063
			c0.099-0.015,0.2-0.025,0.299-0.045c0.151-0.03,0.298-0.072,0.446-0.111c0.087-0.023,0.177-0.04,0.263-0.066
			c0.143-0.043,0.283-0.098,0.423-0.15c0.089-0.033,0.179-0.06,0.267-0.096c0.135-0.056,0.265-0.122,0.396-0.185
			c0.089-0.043,0.18-0.08,0.268-0.126c0.139-0.074,0.273-0.159,0.407-0.242c0.074-0.046,0.151-0.086,0.224-0.134
			c0.181-0.12,0.355-0.251,0.526-0.388c0.022-0.018,0.046-0.033,0.068-0.05c0.194-0.158,0.381-0.327,0.56-0.505l64.175-64.176
			c0.238-0.238,0.452-0.495,0.655-0.761c0.049-0.063,0.096-0.127,0.142-0.191c0.191-0.267,0.369-0.542,0.522-0.831
			c0.006-0.012,0.011-0.024,0.017-0.036c0.146-0.277,0.268-0.565,0.378-0.859c0.028-0.076,0.056-0.151,0.081-0.228
			c0.104-0.306,0.195-0.617,0.258-0.937c0-0.002,0-0.004,0.001-0.006c0.062-0.313,0.097-0.634,0.119-0.955
			c0.006-0.084,0.009-0.167,0.012-0.251c0.003-0.085,0.013-0.168,0.013-0.253V85.887h77.617v60.394
			C457.31,150.426,460.67,153.787,464.816,153.787z M408.147,447.824h38.548l-38.548,38.548V447.824z M315.517,415.498V376.95
			h38.548L315.517,415.498z"/>
	</g>
</g>
<g>
	<g>
		<path d="M263.034,123.908c-3.856-3.856-8.984-5.98-14.437-5.98c-5.453,0.001-10.58,2.125-14.437,5.981l-44.29,44.29
			l-14.927-14.927c-3.855-3.856-8.983-5.98-14.437-5.98c-5.454,0-10.581,2.124-14.437,5.98c-7.96,7.961-7.96,20.913,0,28.873
			l29.365,29.365c3.857,3.856,8.984,5.98,14.436,5.98c5.454,0,10.581-2.125,14.437-5.981l58.726-58.726
			c3.856-3.856,5.981-8.984,5.981-14.437C269.014,132.891,266.891,127.764,263.034,123.908z M252.417,142.166l-58.727,58.727
			c-1.021,1.021-2.377,1.583-3.82,1.583c-1.422,0-2.815-0.578-3.82-1.582l-29.364-29.364c-2.108-2.108-2.108-5.537,0-7.643
			c1.021-1.021,2.377-1.582,3.82-1.582c1.443,0,2.8,0.561,3.82,1.582l20.235,20.235c1.408,1.408,3.317,2.199,5.308,2.199
			c1.991,0,3.899-0.791,5.308-2.199l49.599-49.599c1.021-1.021,2.378-1.583,3.821-1.583c1.442,0,2.799,0.562,3.82,1.583
			c1.021,1.021,1.582,2.378,1.582,3.821C254.001,139.788,253.438,141.145,252.417,142.166z"/>
	</g>
</g>
<g>
	<g>
		<path d="M204.552,55.952c-23.035,0-45.103,7.03-63.818,20.33c-3.379,2.401-4.172,7.087-1.771,10.467
			c2.401,3.379,7.085,4.172,10.467,1.77c16.16-11.485,35.221-17.555,55.121-17.555c52.531,0,95.269,42.738,95.269,95.269
			s-42.738,95.27-95.269,95.27s-95.269-42.738-95.269-95.27c0-21.354,6.902-41.534,19.96-58.359
			c2.543-3.275,1.949-7.991-1.326-10.532c-3.274-2.541-7.989-1.948-10.532,1.327c-15.121,19.482-23.113,42.846-23.113,67.564
			c0,60.81,49.472,110.282,110.281,110.282s110.281-49.472,110.281-110.282S265.362,55.952,204.552,55.952z"/>
	</g>
</g>
<g>
</g>
<g>
</g>
<g>
</g>
<g>
</g>
<g>
</g>
<g>
</g>
<g>
</g>
<g>
</g>
<g>
</g>
<g>
</g>
<g>
</g>
<g>
</g>
<g>
</g>
<g>
</g>
<g>
</g>
</svg>
