<?xml version="1.0" encoding="UTF-8"?>
<svg width="100px" height="100px" viewBox="0 0 100 100" version="1.1" xmlns="http://www.w3.org/2000/svg" xmlns:xlink="http://www.w3.org/1999/xlink">
    <!-- Generator: Sketch 62 (91390) - https://sketch.com -->
    <title>standardized</title>
    <desc>Created with Sketch.</desc>
    <g id="standardized" stroke="none" stroke-width="1" fill="none" fill-rule="evenodd">
        <path d="M70.1752432,5 C71.0274307,5 71.7466245,5.61988055 71.8909795,6.46870009 L71.908931,6.60456977 L71.9154067,6.75189511 L71.9150805,17.3344554 L86.2598365,17.3351446 C87.0646802,17.3351446 87.7508969,17.8880628 87.9462669,18.6645617 L87.9755729,18.8038447 L87.9935243,18.9397144 L88,19.0870398 L88,30.9044129 C88,31.8737016 87.2192439,32.656308 86.2598365,32.656308 C85.4078656,32.656308 84.6887352,32.0367175 84.5435414,31.188097 L84.5254499,31.052258 L84.5188049,30.9044129 L84.517977,20.8382178 L71.9142069,20.8382178 L71.9103247,69.8410105 L71.8969983,69.9855356 L71.8771547,70.1031355 L71.8492381,70.2157953 L71.8185345,70.3134311 L71.8019018,70.3601689 L71.7602591,70.4634819 L71.7096409,70.5687205 L71.6530492,70.6667269 L71.5650751,70.7948895 L71.4739692,70.9079329 L71.4022101,70.9855015 L60.2576449,82.1556222 L60.1929668,82.2168569 L60.1192788,82.2796868 L60.0521547,82.3310528 L59.9401903,82.4049841 L59.8844669,82.4388964 L59.7781159,82.4933546 L59.6900385,82.5340276 L59.531699,82.5905427 L59.3692491,82.6312671 L59.2266047,82.6531168 L59.1876715,82.6575943 L59.0315541,82.6648554 L31.5643218,82.6646535 L31.5643218,91.4953465 L73.3756782,91.4953465 L73.3758103,82.0788598 C73.3758103,81.2654079 73.9280422,80.5761955 74.6975597,80.380644 L74.8355443,80.3513346 L74.9700571,80.3334307 L75.1159738,80.3269647 L84.5188506,80.3264356 L84.5189785,36.1299892 C84.5189785,35.2510206 85.1610093,34.5255644 85.9960848,34.3979977 L86.1294776,34.382889 L86.259142,34.3780941 C87.1113633,34.3780941 87.8310612,34.9979993 87.9755473,35.8467765 L87.9935162,35.9826389 L88,36.1299892 L87.9984239,82.1244935 L87.9940792,82.1979268 C87.9904422,82.2511149 87.9853629,82.300908 87.9789437,82.3452656 L87.9616201,82.4405809 L87.9342158,82.550243 L87.8927114,82.6788278 L87.8409398,82.807135 L87.7985264,82.895345 L87.7399961,82.9979674 L87.6492954,83.1307327 L87.5590418,83.2428392 L87.4871508,83.3206461 L76.3434592,94.4898936 L76.2810345,94.5494366 L76.1824078,94.6310903 L76.1350438,94.667795 L76.0234483,94.7406931 L75.9523921,94.7839049 L75.8630566,94.8286733 L75.7749791,94.8693463 L75.590999,94.9329911 L75.4311928,94.9706169 L75.3349467,94.9853755 L75.272031,94.9927783 L75.1164947,95 L29.8249304,95 C28.9726999,95 28.2535369,94.3802159 28.1091924,93.5313337 L28.0912425,93.3954528 L28.084767,93.2481049 L28.084046,82.6646535 L13.7403371,82.6650294 C12.9354447,82.6650294 12.2491405,82.1121918 12.0537422,81.335658 L12.0244318,81.1963675 L12.0064775,81.0604884 L12,80.9131343 L12,56.8455484 C12,55.8762743 12.7809143,55.0936533 13.7403371,55.0936533 C14.5925246,55.0936533 15.3117184,55.7135339 15.4560734,56.5623534 L15.4740249,56.6982231 L15.4805006,56.8455484 L15.4802759,79.1608911 L57.2907586,79.1608911 L57.2913907,69.7438892 C57.2913907,68.9304373 57.8436225,68.2412249 58.61314,68.0456734 L58.7511246,68.016364 L58.8856374,67.9984601 L59.0315541,67.9919941 L68.4348046,67.9919802 L68.4348046,8.50376238 L15.4802759,8.50376238 L15.4803269,51.6199722 C15.4803269,52.4989407 14.8382962,53.2243969 14.0032207,53.3519637 L13.8698278,53.3670724 L13.7401635,53.3718673 C12.887976,53.3718673 12.1687822,52.7519867 12.0244271,51.9031672 L12.0064757,51.7672975 L12,51.6199722 L12,6.75189511 C12,5.89059307 12.6191111,5.16857687 13.459734,5.02436986 L13.5942467,5.00646601 L13.7401635,5 L70.1752432,5 Z M82.0449195,83.830198 L76.855954,83.830198 L76.855954,89.0305941 L82.0449195,83.830198 Z M65.96,71.4957426 L60.7710345,71.4957426 L60.7710345,76.6970297 L65.96,71.4957426 Z M48.6808009,63.8118812 C49.6499913,63.8118812 50.4367816,64.6091431 50.4367816,65.5940594 C50.4367816,66.4724646 49.8084713,67.2094645 48.9566464,67.3527139 L48.8203493,67.3703321 L48.6808009,67.3762376 L25.9858658,67.3762376 C25.0167994,67.3762376 24.2298851,66.5789234 24.2298851,65.5940594 C24.2298851,64.7156542 24.8581954,63.9786544 25.7100203,63.8354049 L25.8463174,63.8177867 L25.9858658,63.8118812 L48.6808009,63.8118812 Z M58.3127119,57.5742574 C59.2711088,57.5742574 60.045977,58.3731221 60.045977,59.3564356 C60.045977,60.2298057 59.4320485,60.9660145 58.5928642,61.1136305 L58.4585461,61.1319811 L58.3127119,61.1386139 L25.9631502,61.1386139 C25.0048755,61.1386139 24.2298851,60.3396967 24.2298851,59.3564356 C24.2298851,58.4830656 24.8438136,57.7468568 25.6829979,57.5992408 L25.8173159,57.5808902 L25.9631502,57.5742574 L58.3127119,57.5742574 Z M41.2643678,14.8019802 C52.1005812,14.8019802 60.9195402,23.593378 60.9195402,34.4058537 C60.9195402,45.2183019 52.1004345,54.009901 41.2643678,54.009901 C30.4283011,54.009901 21.6091954,45.2183019 21.6091954,34.4058537 C21.6091954,30.0108546 23.0355119,25.8543914 25.7318446,22.3912748 C26.322972,21.6323713 27.4138192,21.4954341 28.173107,22.0828869 C28.9387127,22.675047 29.078233,23.7796078 28.4823261,24.5446474 C26.2679854,27.3888692 25.0986876,30.7969726 25.0986876,34.4058537 C25.0986876,43.2834464 32.3487314,50.5108845 41.2641935,50.5108845 C50.1795949,50.5108845 57.4296995,43.2833334 57.4296995,34.4058537 C57.4296995,25.5284086 50.1796294,18.3009966 41.2641935,18.3009966 C37.8849516,18.3009966 34.6502473,19.3279447 31.907448,21.271175 C31.1236453,21.8261159 30.039635,21.6433137 29.4810314,20.8596309 C28.9181786,20.0697529 29.1044195,18.9725265 29.8938133,18.4133637 C33.2285914,16.0508771 37.1613045,14.8019802 41.2643678,14.8019802 Z M49.0235594,25.4950495 C50.0951398,25.4950495 51.1062371,25.8992804 51.8672751,26.6338334 C52.6332869,27.3729956 53.0574713,28.3615614 53.0574713,29.4127108 C53.0574713,30.3173293 52.7427266,31.177842 52.1567508,31.8798407 L52.0167307,32.0389745 L51.86714,32.1913785 L41.5206115,42.177838 C40.7594268,42.9125329 39.7484606,43.3168317 38.6768548,43.3168317 C37.7656914,43.3168317 36.8965408,43.0244025 36.1796234,42.475617 L36.0036293,42.3331007 L35.8332742,42.1780081 L30.6596577,37.1844382 C29.0751366,35.65506 29.0751366,33.1568433 30.6596577,31.6272729 C31.4207806,30.8926377 32.4317202,30.4884493 33.5034144,30.4884493 C34.414915,30.4884493 35.28426,30.7809017 36.0010149,31.3297213 L36.1769608,31.4722463 L36.3471711,31.6272729 L38.6768736,33.8757426 L46.1798437,26.6340035 C46.8356762,26.0011587 47.676804,25.613508 48.5823764,25.51817 L48.8100421,25.5004526 L49.0235594,25.4950495 Z M49.0235594,28.9389556 C48.9339663,28.9389556 48.8488636,28.9594855 48.7830201,28.9906903 L48.7241434,29.0250884 L48.6505652,29.0862335 L39.9119474,37.5207391 C39.5819638,37.8390129 39.138205,38.0164885 38.6766786,38.0164885 C38.3245757,38.0164885 37.9817146,37.913155 37.6806611,37.7122025 L37.5542928,37.62012 L37.4412973,37.5206306 L33.8760772,34.0794834 C33.7782754,33.9849926 33.6469567,33.9325255 33.5034144,33.9325255 C33.3599105,33.9325255 33.2286721,33.9849706 33.130446,34.0797783 C32.9779945,34.2267847 32.9477438,34.4435402 33.0316336,34.6048676 L33.074551,34.6702494 L33.1305964,34.7320779 L38.3038791,39.7253255 C38.3993973,39.8174279 38.5373157,39.8725855 38.6768548,39.8725855 C38.7664113,39.8725855 38.8514303,39.8520724 38.9172323,39.8208716 L38.9760849,39.786472 L39.0496728,39.7253076 L49.3963774,29.7386781 C49.4898279,29.6484798 49.5386943,29.5346005 49.5385203,29.4123707 C49.5385203,29.2902455 49.4896396,29.17625 49.3963774,29.0862335 C49.2982468,28.9915179 49.1668127,28.9389556 49.0235594,28.9389556 Z" fill="#181818" fill-rule="nonzero"></path>
    </g>
</svg>