<?xml version="1.0" encoding="UTF-8"?>
<svg width="100px" height="100px" viewBox="0 0 100 100" version="1.1" xmlns="http://www.w3.org/2000/svg" xmlns:xlink="http://www.w3.org/1999/xlink">
    <!-- Generator: Sketch 62 (91390) - https://sketch.com -->
    <title>transparent</title>
    <desc>Created with Sketch.</desc>
    <g id="transparent" stroke="none" stroke-width="1" fill="none" fill-rule="evenodd">
        <path d="M50,79.6808511 C51.0555904,79.6808511 51.9111111,80.4782594 51.9111111,81.4621475 L51.9111111,81.4621475 L51.9111111,93.2187036 C51.9111111,94.2025916 51.0555904,95 50,95 C48.9444096,95 48.0888889,94.2025916 48.0888889,93.2187036 L48.0888889,93.2187036 L48.0888889,81.4621475 C48.0888889,80.4782594 48.9444096,79.6808511 50,79.6808511 Z M76.3381054,73.4724725 C77.0555792,72.8141404 78.2178866,72.8141404 78.9353605,73.4724725 L78.9353605,73.4724725 L86.7285613,80.6304349 C87.4460351,81.2894261 87.4460351,82.3576508 86.7285613,83.016642 C86.0110875,83.6756332 84.8480624,83.6749742 84.131306,83.016642 L84.131306,83.016642 L76.3381054,75.8586795 C75.6206315,75.1996883 75.6206315,74.1314637 76.3381054,73.4724725 Z M21.0645092,73.4729629 C21.7819718,72.8139769 22.9449786,72.8139769 23.6624412,73.4729629 C24.3791863,74.1312899 24.3791863,75.1995062 23.6624412,75.8584923 L23.6624412,75.8584923 L15.8686449,83.0163988 C15.1511823,83.6753848 13.9888929,83.6753848 13.2714303,83.0163988 C12.5539677,82.3574127 12.5539677,81.2891964 13.2714303,80.6308693 L13.2714303,80.6308693 Z M50,26.0638298 C60.5806156,26.0638298 71.3226279,30.1259395 81.065587,37.8114536 C88.3656861,43.5697989 92.5094197,49.2661534 92.6817709,49.5052613 C93.1060764,50.0938346 93.1060764,50.8636122 92.6817709,51.4521855 C92.5094197,51.6919746 88.3656861,57.3876479 81.065587,63.1459932 C71.3226279,70.8315073 60.5806156,74.893617 50,74.893617 C39.4201147,74.893617 28.6773721,70.8315073 18.934413,63.1459932 C11.6350443,57.3876479 7.4913106,51.6919746 7.31822907,51.4521855 C6.89392364,50.8636122 6.89392364,50.0938346 7.31822907,49.5052613 C7.4913106,49.2654722 11.6350443,43.5697989 18.934413,37.8114536 C28.6773721,30.1259395 39.4201147,26.0638298 50,26.0638298 Z M50,29.5516717 C37.7645201,29.5516717 27.6659037,35.4919025 21.3487914,40.4750205 C16.1716804,44.5589293 12.6370187,48.6585059 11.1756844,50.4780422 C12.6479733,52.3084781 16.2228015,56.4523339 21.4283942,60.5450984 C27.72944,65.4996051 37.8017654,71.4057751 50,71.4057751 C62.2354799,71.4057751 72.3340963,65.4655443 78.6512086,60.4824263 C83.8283196,56.3985176 87.3629813,52.2989409 88.825046,50.4800858 C87.3512965,48.6482876 83.7771985,44.5051129 78.572336,40.4123484 C72.27056,35.4578417 62.1982346,29.5516717 50,29.5516717 Z M50.4777778,34.6808511 C59.6982253,34.6808511 67.2,41.7679521 67.2,50.4787234 C67.2,59.1627534 59.7555556,66.2765957 50.4777778,66.2765957 C41.2573302,66.2765957 33.7555556,59.1894947 33.7555556,50.4787234 C33.7555556,49.5516955 33.8433762,48.5451297 34.0335335,47.5920463 C34.2258681,46.640334 35.201331,46.0115733 36.2065514,46.1912193 C37.2146751,46.3729222 37.8773221,47.2855511 37.686439,48.2379488 C37.5485387,49.0292139 37.4716049,49.6593459 37.4716049,50.4787234 C37.4716049,57.2538439 43.306238,62.7659574 50.4777778,62.7659574 C57.6863329,62.7659574 63.4839506,57.2339594 63.4839506,50.4787234 C63.4839506,43.7036029 57.6493176,38.1914894 50.4777778,38.1914894 C49.0196639,38.1914894 47.4345366,38.4321601 46.0192443,38.9327003 C44.7607229,39.3859293 43.7838083,38.8456199 43.4339772,37.9953872 C43.0623722,37.0916722 43.5363137,36.0741356 44.492906,35.7230718 C46.4060909,35.0188871 48.5254004,34.6808511 50.4777778,34.6808511 Z M50,43.2978723 C54.2148959,43.2978723 57.6444444,46.5194377 57.6444444,50.4787234 C57.6444444,54.4380091 54.2148959,57.6595745 50,57.6595745 C45.7851041,57.6595745 42.3555556,54.4380091 42.3555556,50.4787234 C42.3555556,46.5194377 45.7851041,43.2978723 50,43.2978723 Z M50,46.8882979 C47.892552,46.8882979 46.1777778,48.4990805 46.1777778,50.4787234 C46.1777778,52.4583663 47.892552,54.0691489 50,54.0691489 C52.107448,54.0691489 53.8222222,52.4583663 53.8222222,50.4787234 C53.8222222,48.4990805 52.107448,46.8882979 50,46.8882979 Z M38.5333333,39.4680851 C39.5792187,39.4680851 40.4444444,40.3208112 40.4444444,41.3829787 C40.4444444,42.4399102 39.588177,43.2978723 38.5333333,43.2978723 C37.4784896,43.2978723 36.6222222,42.4406583 36.6222222,41.3829787 C36.6222222,40.3260473 37.4784896,39.4680851 38.5333333,39.4680851 Z M13.2714303,18.8984949 C13.9888929,18.2395088 15.1518997,18.2395088 15.8686449,18.8984949 L15.8686449,18.8984949 L23.6624412,26.0564014 C24.3791863,26.7153874 24.3791863,27.7836037 23.6624412,28.4419307 C22.944261,29.1009167 21.7819718,29.1009167 21.0645092,28.4419307 L21.0645092,28.4419307 L13.2714303,21.2840243 C12.5539677,20.6256972 12.5539677,19.5574809 13.2714303,18.8984949 Z M84.131306,18.8984949 C84.8487799,18.2395088 86.0110875,18.2395088 86.7285613,18.8984949 C87.4460351,19.5574809 87.4460351,20.6256972 86.7285613,21.2840243 L86.7285613,21.2840243 L78.9353605,28.4419307 C78.2178866,29.1009167 77.0555792,29.1009167 76.3381054,28.4419307 C75.6206315,27.7836037 75.6206315,26.7153874 76.3381054,26.0564014 L76.3381054,26.0564014 Z M50,5 C51.0555904,5 51.9111111,5.79740837 51.9111111,6.78129639 L51.9111111,6.78129639 L51.9111111,18.5378525 C51.9111111,19.5217406 51.0555904,20.3191489 50,20.3191489 C48.9444096,20.3191489 48.0888889,19.5217406 48.0888889,18.5378525 L48.0888889,18.5378525 L48.0888889,6.78129639 C48.0888889,5.79740837 48.9444096,5 50,5 Z" fill="#181818" fill-rule="nonzero"></path>
    </g>
</svg>