<?xml version="1.0" encoding="UTF-8"?>
<svg width="99px" height="63px" viewBox="0 0 99 63" version="1.1" xmlns="http://www.w3.org/2000/svg" xmlns:xlink="http://www.w3.org/1999/xlink">
    <!-- Generator: Sketch 62 (91390) - https://sketch.com -->
    <title>plgd-logo-symbol-blue</title>
    <g id="plgd-logo-symbol-blue" stroke="none" stroke-width="1" fill="none" fill-rule="evenodd">
        <path d="M93.843,53.14 C97.063,48.937 98.981,43.682 98.981,37.977 C98.981,24.191 87.804,13.014 74.018,13.014 C72.897,13.014 71.796,13.095 70.715,13.239 L70.714,13.24 C69.823,11.816 69.118,10.75 68.686,10.201 C63.809,3.989 56.232,0 47.72,0 C35.111,0 24.551,8.767 21.791,20.537 C21.791,20.521 21.776,20.502 21.78,20.487 C21.582,20.481 21.386,20.469 21.187,20.469 C9.487,20.469 0,29.956 0,41.657 C0,53.356 9.487,62.843 21.187,62.843 C28.98,62.843 39.557,62.935 46.883,62.935 C51.252,62.935 53.619,62.884 71.654,62.935 C71.803,62.936 71.944,62.931 72.091,62.931 C74.434,63.04 79.471,62.953 84.259,60.749 C85.027,60.387 89.692,58.436 93.845,53.143 C93.844,53.142 93.844,53.141 93.843,53.14" id="Fill-1" fill="#FEBF40"></path>
        <path d="M93.843,53.14 C97.063,48.937 98.981,43.682 98.981,37.977 C98.981,24.191 87.804,13.014 74.018,13.014 C72.897,13.014 71.796,13.095 70.715,13.239 L70.714,13.24 C69.823,11.816 69.119,10.75 68.686,10.201 C63.809,3.989 56.232,0 47.72,0 C33.011,0 21.081,11.926 21.081,26.639 C21.081,41.353 32.17,62.935 46.883,62.935 C51.252,62.935 53.619,62.884 71.654,62.935 C71.803,62.936 71.944,62.931 72.091,62.931 C74.434,63.04 79.471,62.953 84.259,60.749 C85.027,60.387 89.692,58.436 93.845,53.143 C93.844,53.142 93.844,53.141 93.843,53.14" id="Fill-3" fill="#87CEF2"></path>
        <path d="M92.9025,51.7386 C88.8515,44.5096 71.8185,14.1846 68.6865,10.2006 C63.8095,3.9886 56.2315,0.0006 47.7195,0.0006 C33.0115,0.0006 21.0805,11.9256 21.0805,26.6386 C21.0805,41.3526 32.1695,62.9346 46.8825,62.9346 C51.2525,62.9346 53.6185,62.8846 71.6535,62.9346 C71.8025,62.9356 71.9435,62.9306 72.0905,62.9306 C74.4335,63.0406 79.4715,62.9536 84.2585,60.7496 C85.0275,60.3866 89.6925,58.4356 93.8445,53.1426 L92.9025,51.7386 Z" id="Fill-5" fill="#2261AE"></path>
    </g>
</svg>