<?xml version="1.0" encoding="UTF-8" standalone="no"?>
<!DOCTYPE svg PUBLIC "-//W3C//DTD SVG 1.1//EN" "http://www.w3.org/Graphics/SVG/1.1/DTD/svg11.dtd">
<svg version="1.1" xmlns="http://www.w3.org/2000/svg" xmlns:xlink="http://www.w3.org/1999/xlink" preserveAspectRatio="xMidYMid meet" viewBox="145.88812000000001 123.13204943 452.20563 119.07172000000003" width="300" height="79"><defs><path d="M355.5 151.62L347.41 152.56C347.41 169.87 347.41 179.48 347.41 181.41C347.41 185.18 347.57 188.75 348.63 191.47C349.38 191.47 355.46 191.47 356.22 191.47C355.55 188.86 355.5 184.96 355.5 181.97C355.5 177.92 355.5 167.81 355.5 151.62ZM494.75 153.91L492.53 154.25L492.53 163.16L487.38 163.16L487.38 165.22L492.53 165.22C492.53 172.44 492.53 176.45 492.53 177.25C492.53 184.9 493.1 188.63 497.38 192.12C497.53 191.98 498.75 190.83 498.91 190.69C494.86 187.41 494.75 183.75 494.75 178.31C494.75 177.44 494.75 173.07 494.75 165.22L501.03 165.22L501.31 163.16L494.75 163.16L494.75 153.91ZM289.94 165.87C289.6 164.43 289.12 162.95 288.56 161.56C287.93 161.72 282.85 162.97 282.22 163.12C282.94 166.45 283 169.99 283 173.37C283 175.15 283 184.02 283 200L291.09 200C291.09 197.54 291.09 196.18 291.09 195.91C291.09 193.85 291.08 191.95 290.75 190.34C292.36 191.84 294.66 192.12 296.94 192.12C303.04 192.12 309.41 189.24 309.41 176.81C309.41 165.55 305.59 161.5 298.38 161.5C294.16 161.5 291.55 163.16 289.94 165.87ZM361.38 170.53C361.38 177.19 366.65 178.82 371.03 180.09C373.8 180.93 375.97 181.52 375.97 183.41C375.97 185.24 374.36 185.84 372.03 185.84C369.15 185.84 365.92 185.04 362.88 183.59C362.66 184.17 360.96 188.77 360.75 189.34C363.91 191.23 367.73 192.12 372.78 192.12C379.55 192.12 383.84 189.18 383.84 182.97C383.84 176.7 378.83 175.03 374.28 173.75C371.17 172.86 369.13 172.27 369.13 170.44C369.13 168.61 370.79 168 372.84 168C375.73 168 378.12 168.55 380.5 169.66C380.72 169.08 382.5 164.51 382.72 163.94C379.39 161.94 375.95 161.5 372.06 161.5C365.91 161.5 361.38 164.93 361.38 170.53ZM387.59 176.94C387.59 188.36 392.7 192.12 401.63 192.12C405.9 192.12 409.4 191.07 412.56 188.91C412.32 188.35 410.37 183.87 410.13 183.31C407.3 184.98 404.58 185.56 401.53 185.56C398.15 185.56 396.47 184.17 395.97 180.62C397.71 180.44 411.66 178.99 413.41 178.81C413.41 164.5 408.69 161.5 400.81 161.5C392.83 161.5 387.59 165.12 387.59 176.94ZM322.88 162.16L314.78 163.12C314.78 172.89 314.78 178.32 314.78 179.41C314.78 185.4 315.55 192.12 325.09 192.12C329.53 192.12 332.02 190.47 333.63 187.75C333.96 189.19 334.48 190.68 335.03 192.06C335.66 191.91 340.71 190.66 341.34 190.5C340.62 187.17 340.56 183.63 340.56 180.25C340.56 179.04 340.56 173.01 340.56 162.16L332.47 163.12C332.47 174.51 332.47 180.83 332.47 182.09C331.19 184.37 329.92 185.53 327.03 185.53C323.87 185.53 322.88 183.3 322.88 178.31C322.88 176.16 322.88 170.77 322.88 162.16ZM418.88 169.87C418.88 175.2 422.66 176.81 427.16 178.03C431.43 179.2 434.91 180.09 434.91 183.97C434.91 188.63 431.53 190.12 427.81 190.12C424.49 190.12 421.28 189.24 418.84 187.69C418.75 187.87 417.97 189.32 417.88 189.5C420.7 191.39 424.17 192.12 427.94 192.12C432.82 192.12 437.09 189.96 437.09 183.97C437.09 178.59 432.92 177.36 428.09 175.97C423.66 174.75 421.06 173.6 421.06 169.94C421.06 165.72 423.95 164.5 427.72 164.5C430.16 164.5 432.54 164.88 434.59 165.94C434.68 165.75 435.33 164.25 435.41 164.06C432.91 162.79 430.26 162.5 427.66 162.5C423.11 162.5 418.88 164.55 418.88 169.87ZM465.47 169.87C465.47 175.2 469.26 176.81 473.75 178.03C478.02 179.2 481.5 180.09 481.5 183.97C481.5 188.63 478.12 190.12 474.41 190.12C471.08 190.12 467.85 189.24 465.41 187.69C465.31 187.87 464.56 189.32 464.47 189.5C467.3 191.39 470.76 192.12 474.53 192.12C479.41 192.12 483.66 189.96 483.66 183.97C483.66 178.59 479.51 177.36 474.69 175.97C470.25 174.75 467.63 173.6 467.63 169.94C467.63 165.72 470.51 164.5 474.28 164.5C476.72 164.5 479.14 164.88 481.19 165.94C481.27 165.75 481.92 164.25 482 164.06C479.5 162.79 476.86 162.5 474.25 162.5C469.7 162.5 465.47 164.55 465.47 169.87ZM505.06 177.37C505.06 189.41 510.35 192.12 516.84 192.12C520.34 192.12 523.37 191.51 526.03 189.91C525.95 189.72 525.3 188.19 525.22 188C522.56 189.5 520.01 190.12 516.91 190.12C511.75 190.12 507.68 188.25 507.34 179.16C508.67 179.05 515.29 178.51 527.22 177.53C527.22 177.4 527.22 177.33 527.22 177.31C527.22 166.16 523.12 162.5 516.41 162.5C511.19 162.5 505.06 164.4 505.06 177.37ZM536.13 168.09C536.01 166.21 535.68 164.44 535.13 162.94C534.93 162.97 533.38 163.25 533.19 163.28C533.8 165.5 534.09 168.09 534.09 170.53C534.09 171.93 534.09 178.91 534.09 191.47L536.31 191.47C536.31 179.37 536.31 172.66 536.31 171.31C538.42 166.99 540.41 164.5 545.13 164.5C549.9 164.5 552.38 167.27 552.38 173.59C552.38 174.79 552.38 180.74 552.38 191.47L554.59 191.47C554.59 179.37 554.59 172.66 554.59 171.31C556.37 166.93 558.72 164.5 563.44 164.5C569.82 164.5 570.69 169.27 570.69 176.09C570.69 177.12 570.69 182.24 570.69 191.47L572.91 191.47C572.91 181.85 572.91 176.51 572.91 175.44C572.91 167.51 570.79 162.5 563.75 162.5C558.81 162.5 555.83 164.29 553.78 169C553 165.28 550.29 162.5 545.47 162.5C540.42 162.5 538.07 164.65 536.13 168.09ZM579.91 169.87C579.91 175.2 583.66 176.81 588.16 178.03C592.43 179.2 595.94 180.09 595.94 183.97C595.94 188.63 592.56 190.12 588.84 190.12C585.52 190.12 582.28 189.24 579.84 187.69C579.75 187.87 579 189.32 578.91 189.5C581.73 191.39 585.17 192.12 588.94 192.12C593.82 192.12 598.09 189.96 598.09 183.97C598.09 178.59 593.92 177.36 589.09 175.97C584.66 174.75 582.06 173.6 582.06 169.94C582.06 165.72 584.95 164.5 588.72 164.5C591.16 164.5 593.54 164.88 595.59 165.94C595.68 165.75 596.35 164.25 596.44 164.06C593.94 162.79 591.26 162.5 588.66 162.5C584.11 162.5 579.91 164.55 579.91 169.87ZM442.28 162.94L439.97 163.37C445.65 180.23 448.81 189.6 449.44 191.47C448.44 194.69 446.69 197 443.25 198.72C443.35 198.9 444.18 200.32 444.28 200.5C448.22 198.61 450.73 195.12 452.28 190.41C452.88 188.61 455.87 179.62 461.25 163.44L459.09 162.94L450.66 189.06L442.28 162.94ZM524.94 175.69C523.76 175.79 517.88 176.27 507.28 177.16C507.28 176.82 507.28 176.63 507.28 176.59C507.28 166.33 511.69 164.5 516.41 164.5C521.51 164.5 524.83 167.15 524.94 175.69ZM405.53 173.97C404.87 174.07 401.58 174.59 395.66 175.53C395.66 175.04 395.66 174.77 395.66 174.72C395.66 170.11 397.43 168 400.81 168C403.81 168 405.42 169.64 405.53 173.97ZM301.25 176.81C301.25 183.41 299.57 185.69 295.47 185.69C294.08 185.69 292.65 185.41 291.09 184.69C291.09 183.37 291.09 172.85 291.09 171.53C292.31 169.31 293.76 168.06 296.31 168.06C300.47 168.06 301.25 171.38 301.25 176.81Z" id="a12o5BwsZR"></path><path d="M212.4 123.13C241.98 123.13 265.79 146.95 265.79 176.52C265.79 177.75 265.79 187.58 265.79 188.81C265.79 218.39 241.98 242.2 212.4 242.2C211.09 242.2 200.59 242.2 199.28 242.2C169.7 242.2 145.89 218.39 145.89 188.81C145.89 187.58 145.89 177.75 145.89 176.52C145.89 146.95 169.7 123.13 199.28 123.13C201.9 123.13 211.09 123.13 212.4 123.13Z" id="i1tQYPKhy"></path><path d="M193.25 141.03C193.25 143.05 193.59 145 194.22 146.81C190.98 147.51 187.92 148.69 185.13 150.28C183.69 147.48 181.51 145.09 178.78 143.38C175.95 141.59 172.71 140.66 169.38 140.66C163.25 140.66 157.64 143.75 154.38 148.94C148.91 157.63 146 167.64 146 177.91C146 178.94 146 187.22 146 188.25C146 209.7 159.12 229.3 179.41 238.13C179.44 238.14 179.61 238.2 179.91 238.31C179.96 238.33 179.99 238.34 180 238.34C180.95 238.72 181.93 239.02 182.91 239.22C184.08 239.46 185.28 239.59 186.47 239.59C187.01 239.59 187.55 239.55 188.09 239.5C188.22 239.49 188.33 239.49 188.5 239.47C188.87 239.43 189.26 239.35 189.62 239.28C189.79 239.25 189.97 239.23 190.16 239.19C190.63 239.09 191.11 238.96 191.59 238.81C191.78 238.76 191.96 238.71 192.12 238.66C192.13 238.65 192.18 238.63 192.19 238.63C192.47 238.53 192.76 238.44 193 238.34C193.2 238.26 193.4 238.18 193.59 238.09C193.6 238.09 193.62 238.07 193.62 238.06C193.91 237.94 194.19 237.8 194.47 237.66C194.63 237.58 194.81 237.49 194.97 237.41C195.39 237.18 195.79 236.94 196.22 236.66C196.34 236.58 196.45 236.5 196.53 236.44C196.54 236.43 196.62 236.38 196.62 236.38C196.93 236.16 197.21 235.95 197.5 235.72C197.61 235.63 197.74 235.53 197.84 235.44C198.65 234.77 199.39 234.02 200.06 233.22C200.14 233.13 200.21 233.06 200.28 232.97C200.54 232.65 200.76 232.32 201 231.97C201.07 231.87 201.28 231.56 201.28 231.56C201.47 231.27 201.66 230.99 201.81 230.72C201.91 230.55 202 230.36 202.09 230.19C202.19 230.01 202.29 229.84 202.37 229.66C202.39 229.63 202.49 229.47 202.66 229.19C202.81 228.76 202.89 228.52 202.91 228.47C203.03 228.17 203.14 227.87 203.25 227.56C203.25 227.55 203.27 227.48 203.31 227.34C203.33 227.25 203.34 227.2 203.34 227.19C203.48 226.77 203.58 226.39 203.66 226.09C203.71 225.89 203.76 225.69 203.81 225.47C203.86 225.23 203.9 225 203.94 224.75C203.98 224.53 204.02 224.17 204.06 223.72C204.08 223.56 204.11 223.38 204.12 223.22C204.14 222.98 204.15 222.76 204.16 222.53C204.16 222.52 204.17 222.47 204.19 222.38L204.19 220.13C207.97 220.13 210.08 220.13 210.5 220.13C222.64 220.13 233.23 213.39 238.75 203.47C241.41 205.07 244.52 205.97 247.84 205.97C257.61 205.97 265.53 198.02 265.53 188.25C265.53 187.22 265.53 178.94 265.53 177.91C265.53 147.8 241.04 123.31 210.94 123.31C201.17 123.31 193.25 131.26 193.25 141.03ZM255.03 178.63C255.03 179.66 255.03 187.93 255.03 188.97C255.03 192.42 252.24 195.22 248.78 195.22C245.33 195.22 242.53 192.42 242.53 188.97C242.53 187.93 242.53 179.66 242.53 178.63C242.53 161.74 228.79 148 211.91 148C208.45 148 205.63 145.2 205.63 141.75C205.63 138.3 208.45 135.47 211.91 135.47C235.69 135.47 255.03 154.84 255.03 178.63ZM173.63 153.78C176.55 155.62 177.43 159.48 175.59 162.41C172.53 167.27 170.91 172.89 170.91 178.63C170.91 179.66 170.91 187.93 170.91 188.97C170.91 197.5 174.75 205.53 181.16 211.25C181.16 208.03 181.16 182.31 181.16 179.09C181.16 167.6 190.5 158.22 202 158.22C202.94 158.22 210.49 158.22 211.44 158.22C222.94 158.22 232.28 167.6 232.28 179.09C232.28 180.03 232.28 187.56 232.28 188.5C232.28 200 222.94 209.38 211.44 209.38C210.25 209.37 204.33 209.37 193.66 209.38L193.66 222.56C193.66 222.58 193.66 222.59 193.66 222.59C193.66 222.77 193.64 222.95 193.63 223.12C193.62 223.16 193.63 223.19 193.63 223.22C193.61 223.35 193.59 223.49 193.56 223.62C193.55 223.7 193.55 223.77 193.53 223.84C193.52 223.9 193.48 223.95 193.47 224C193.43 224.15 193.42 224.32 193.38 224.47C193.37 224.48 193.35 224.49 193.34 224.5C193.28 224.69 193.2 224.88 193.13 225.06C193.06 225.22 192.98 225.39 192.91 225.53C192.88 225.58 192.87 225.63 192.84 225.69C192.78 225.8 192.69 225.89 192.63 226C192.59 226.05 192.56 226.11 192.53 226.16C192.45 226.28 192.37 226.39 192.28 226.5C192.26 226.53 192.24 226.57 192.22 226.59C191.98 226.88 191.69 227.14 191.41 227.37C191.37 227.4 191.35 227.41 191.31 227.44C191.2 227.53 191.08 227.64 190.97 227.72C190.93 227.75 190.89 227.75 190.84 227.78C190.7 227.88 190.56 227.98 190.41 228.06C190.36 228.09 190.33 228.1 190.28 228.12C190.17 228.18 190.05 228.23 189.94 228.28C189.87 228.31 189.79 228.35 189.72 228.37C189.62 228.41 189.51 228.47 189.41 228.5C189.34 228.52 189.26 228.54 189.19 228.56C189.03 228.61 188.89 228.65 188.72 228.69C188.67 228.7 188.61 228.71 188.56 228.72C188.42 228.75 188.27 228.76 188.13 228.78C188.08 228.79 188.02 228.81 187.97 228.81C187.78 228.83 187.6 228.84 187.41 228.84C186.99 228.84 186.57 228.8 186.16 228.72C185.73 228.63 185.3 228.48 184.91 228.31C168.81 221.3 158.41 205.86 158.41 188.97C158.41 187.93 158.41 179.66 158.41 178.62C158.41 170.53 160.68 162.61 165 155.75C166.15 153.92 168.09 152.88 170.09 152.81C171.3 152.77 172.53 153.09 173.63 153.78ZM202 170.75C197.4 170.75 193.66 174.49 193.66 179.09C193.66 180.28 193.66 186.19 193.66 196.84C204.33 196.84 210.25 196.84 211.44 196.84C216.04 196.84 219.78 193.1 219.78 188.5C219.78 187.56 219.78 180.03 219.78 179.09C219.78 174.49 216.04 170.75 211.44 170.75C209.55 170.75 203.89 170.75 202 170.75Z" id="agWXNQC93"></path><linearGradient id="gradientcMxqU7J03" gradientUnits="userSpaceOnUse" x1="227.27" y1="212.1" x2="170.21" y2="134.43"><stop style="stop-color: #f9b00b;stop-opacity: 1" offset="0%"></stop><stop style="stop-color: #f25c19;stop-opacity: 1" offset="55.2141%"></stop><stop style="stop-color: #d33c19;stop-opacity: 1" offset="100%"></stop></linearGradient></defs><g><g><use xlink:href="#a12o5BwsZR" opacity="1" fill="#656263" fill-opacity="1"></use><g><use xlink:href="#a12o5BwsZR" opacity="1" fill-opacity="0" stroke="#000000" stroke-width="1" stroke-opacity="0"></use></g></g><g><use xlink:href="#i1tQYPKhy" opacity="1" fill="#ffffff" fill-opacity="1"></use><g><use xlink:href="#i1tQYPKhy" opacity="1" fill-opacity="0" stroke="#000000" stroke-width="1" stroke-opacity="0"></use></g></g><g><use xlink:href="#agWXNQC93" opacity="1" fill="url(#gradientcMxqU7J03)"></use><g><use xlink:href="#agWXNQC93" opacity="1" fill-opacity="0" stroke="#000000" stroke-width="1" stroke-opacity="0"></use></g></g></g></svg>